<svg width="18" height="18" viewBox="0 0 18 18" fill="none" xmlns="http://www.w3.org/2000/svg">
<path fill-rule="evenodd" clip-rule="evenodd" d="M5.4859 2.82594C7.80158 2.56713 10.1951 2.56713 12.5108 2.82594C13.8806 2.97903 14.9867 4.05802 15.1479 5.43574C15.4248 7.80342 15.4248 10.1953 15.1479 12.5629C14.9867 13.9407 13.8806 15.0197 12.5108 15.1728C10.1951 15.4316 7.80158 15.4316 5.4859 15.1728C4.11611 7.14473 3.00994 13.9407 2.8488 12.5629C2.57188 10.1953 2.57188 7.80342 2.8488 5.43574C3.00994 4.05802 4.11611 2.97903 5.4859 2.82594ZM9.74835 5.99939C9.74835 6.41359 9.41258 6.74938 8.99836 6.74938C8.58413 6.74938 8.24835 6.41359 8.24835 5.99939C8.24835 5.58516 8.58413 5.24938 8.99836 5.24938C9.41258 5.24938 9.74835 5.58516 9.74835 5.99939ZM8.99836 8.06187C9.309 8.06187 9.56086 8.31372 9.56086 8.62437V12.3744C9.56086 12.685 9.309 12.9369 8.99836 12.9369C8.6877 12.9369 8.43586 12.685 8.43586 12.3744V8.62437C8.43586 8.31372 8.6877 8.06187 8.99836 8.06187Z" fill="#DF0B0B"/>
</svg>
