<svg width="791" height="693" viewBox="0 0 791 693" fill="none" xmlns="http://www.w3.org/2000/svg">
<path d="M19.2008 261.265C17.7921 253.303 23.9163 246 32.002 246H756.796C766.621 246 774.125 254.772 772.603 264.478L716.762 620.665C710.278 662.021 674.649 692.5 632.788 692.5H185.23C133.327 692.5 88.9095 655.251 79.8667 604.142L19.2008 261.265Z" fill="#551E77"/>
<rect y="246" width="791" height="50" rx="25" fill="#381D5A"/>
<rect x="414" y="350" width="46" height="283" rx="20" fill="#381D5A"/>
<rect x="144" y="350" width="46" height="283" rx="20" fill="#381D5A"/>
<rect x="232" y="350" width="46" height="283" rx="20" fill="#381D5A"/>
<rect x="321" y="350" width="46" height="283" rx="20" fill="#381D5A"/>
<rect x="606" y="350" width="46" height="283" rx="20" fill="#381D5A"/>
<rect x="507" y="350" width="46" height="283" rx="20" fill="#381D5A"/>
<rect x="343.5" width="46" height="316.284" rx="23" transform="rotate(30.075 343.5 0)" fill="#551E77"/>
<rect x="414" y="23.6367" width="46" height="315.81" rx="23" transform="rotate(-30.92 414 23.6367)" fill="#551E77"/>
</svg>
