<svg width="18" height="21" viewBox="0 0 18 21" fill="none" xmlns="http://www.w3.org/2000/svg">
<g clip-path="url(#clip0_613_78)">
<path d="M0.383057 5.51855L0.542873 5.55674C5.36816 6.71018 10.4271 6.69704 15.2455 5.51855L14.9802 17.7289C14.9732 18.048 14.7553 18.3303 14.4346 18.4378C10.2214 19.8493 5.59799 19.8444 1.39214 18.4138C1.11662 18.3201 0.928885 18.0796 0.91696 17.8053L0.383057 5.51855Z" fill="#FE2A2A"/>
<path d="M0 3.08266L0.236271 3.03084C5.32888 1.91388 10.6302 1.93163 15.7141 3.08266V4.58591C10.6229 5.67597 5.33666 5.6928 0.237593 4.6352L0 4.58591V3.08266Z" fill="#FE2A2A"/>
<path d="M6.00458 0H5.23804V2.09315H6.00458V0Z" fill="#FE2A2A"/>
<path d="M10.1782 0H9.41162V2.09315H10.1782V0Z" fill="#FE2A2A"/>
<path d="M10.178 0.533203H5.23804V0.000401318H10.178V0.533203Z" fill="#FE2A2A"/>
<path d="M13.0755 20.2047C15.3263 20.2047 17.1509 18.4953 17.1509 16.3865C17.1509 14.2778 15.3263 12.5684 13.0755 12.5684C10.8247 12.5684 9 14.2778 9 16.3865C9 18.4953 10.8247 20.2047 13.0755 20.2047Z" fill="#56368B" stroke="#56368B" stroke-width="5"/>
<path d="M16.3476 16.341C16.3476 17.8896 14.9357 19.183 13.1428 19.183C11.3499 19.183 9.93799 17.8896 9.93799 16.341C9.93799 14.7924 11.3499 13.499 13.1428 13.499C14.9357 13.499 16.3476 14.7924 16.3476 16.341Z" stroke="#FE2A2A" stroke-width="3"/>
<path d="M14.6986 15.5391L14.208 15.1006L11.7548 17.2929L12.2454 17.7314L14.6986 15.5391Z" fill="#FE2A2A"/>
<path d="M12.2455 15.1016L11.7549 15.54L14.2081 17.7324L14.6987 17.2939L12.2455 15.1016Z" fill="#FE2A2A"/>
</g>
<defs>
<clipPath id="clip0_613_78">
<rect width="18" height="21" fill="white"/>
</clipPath>
</defs>
</svg>
