<svg width="900" height="900" viewBox="0 0 900 900" fill="none" xmlns="http://www.w3.org/2000/svg">
<g clip-path="url(#clip0_31_277)">
<path d="M450 900C698.528 900 900 698.528 900 450C900 201.472 698.528 0 450 0C201.472 0 0 201.472 0 450C0 698.528 201.472 900 450 900Z" fill="#5865F2"/>
<path d="M605.944 306.738C576.768 293.347 545.978 283.799 514.345 278.332C514.057 278.277 513.759 278.315 513.494 278.44C513.228 278.564 513.009 278.77 512.868 279.027C508.668 286.64 504.854 294.46 501.442 302.458C467.346 297.28 432.663 297.28 398.566 302.458C395.139 294.441 391.272 286.618 386.982 279.027C386.835 278.775 386.615 278.574 386.352 278.45C386.088 278.326 385.793 278.285 385.506 278.332C353.882 283.79 323.102 293.339 293.941 306.738C293.69 306.844 293.478 307.025 293.335 307.257C235.002 394.418 219.023 479.435 226.863 563.379C226.886 563.585 226.949 563.785 227.05 563.966C227.152 564.147 227.288 564.306 227.452 564.434C261.42 589.596 299.417 608.804 339.82 621.237C340.105 621.323 340.41 621.319 340.692 621.226C340.975 621.133 341.223 620.956 341.402 620.719C350.078 608.909 357.765 596.403 364.386 583.33C364.476 583.151 364.527 582.954 364.536 582.754C364.545 582.553 364.512 582.353 364.438 582.166C364.364 581.979 364.252 581.81 364.108 581.67C363.964 581.53 363.792 581.422 363.603 581.353C351.48 576.722 339.742 571.138 328.5 564.653C328.296 564.533 328.125 564.365 328.001 564.163C327.878 563.961 327.806 563.732 327.792 563.496C327.778 563.259 327.822 563.023 327.921 562.808C328.02 562.593 328.171 562.406 328.359 562.263C330.715 560.505 333.079 558.659 335.329 556.796C335.529 556.632 335.77 556.527 336.027 556.493C336.283 556.459 336.543 556.497 336.779 556.603C410.423 590.23 490.157 590.23 562.931 556.603C563.168 556.489 563.433 556.445 563.694 556.476C563.956 556.507 564.203 556.612 564.407 556.778C566.657 558.633 569.021 560.496 571.438 562.263C571.628 562.405 571.779 562.591 571.88 562.805C571.98 563.019 572.026 563.255 572.014 563.491C572.002 563.727 571.932 563.957 571.81 564.16C571.688 564.362 571.518 564.532 571.315 564.653C560.088 571.201 548.328 576.787 536.159 581.353C535.969 581.424 535.797 581.535 535.653 581.678C535.51 581.821 535.398 581.993 535.326 582.183C535.253 582.372 535.222 582.575 535.234 582.777C535.246 582.979 535.301 583.177 535.394 583.357C542.126 596.358 549.802 608.849 558.36 620.728C558.534 620.972 558.78 621.156 559.064 621.252C559.348 621.348 559.656 621.352 559.942 621.264C600.401 608.867 638.447 589.656 672.442 564.46C672.609 564.339 672.747 564.184 672.849 564.005C672.951 563.826 673.013 563.628 673.031 563.423C682.418 466.357 657.316 382.034 606.498 307.292C606.384 307.048 606.188 306.852 605.944 306.738ZM375.372 512.271C353.197 512.271 334.942 491.915 334.942 466.919C334.942 441.923 352.854 421.568 375.372 421.568C398.074 421.568 416.171 442.099 415.802 466.919C415.819 491.915 397.898 512.271 375.372 512.271ZM524.9 512.271C502.725 512.271 484.471 491.915 484.471 466.919C484.471 441.923 502.383 421.568 524.9 421.568C547.602 421.568 565.699 442.099 565.33 466.919C565.339 491.915 547.602 512.271 524.9 512.271Z" fill="white"/>
</g>
<rect x="8.5" y="8.5" width="883" height="883" rx="441.5" stroke="white" stroke-width="17"/>
<defs>
<clipPath id="clip0_31_277">
<rect width="900" height="900" rx="450" fill="white"/>
</clipPath>
</defs>
</svg>
