<svg width="70" height="22" viewBox="0 0 70 22" fill="none" xmlns="http://www.w3.org/2000/svg">
<g clip-path="url(#clip0_564_2)">
<g filter="url(#filter0_d_564_2)">
<path d="M62.3 0H7.7C3.44741 0 0 4.61051 0 10.2979V11.7021C0 17.3895 3.44741 22 7.7 22H62.3C66.5526 22 70 17.3895 70 11.7021V10.2979C70 4.61051 66.5526 0 62.3 0Z" fill="#08074F"/>
<path d="M66.5 1.4043H3.85005C3.27015 1.4043 2.80005 2.033 2.80005 2.80855V8.42557C2.80005 9.20112 3.27015 9.82983 3.85005 9.82983H66.5C67.0799 9.82983 67.55 9.20112 67.55 8.42557V2.80855C67.55 2.033 67.0799 1.4043 66.5 1.4043Z" fill="url(#paint0_linear_564_2)"/>
<path d="M17.9842 13.5739H15.9088V5.74414H18.0014C18.5903 5.74414 19.0972 5.9009 19.5222 6.21438C19.9472 6.52533 20.274 6.97268 20.5027 7.55633C20.7333 8.13999 20.8486 8.83832 20.8486 9.65139C20.8486 10.467 20.7333 11.1679 20.5027 11.7541C20.274 12.3403 19.9453 12.7902 19.5165 13.1037C19.0896 13.4172 18.5788 13.5739 17.9842 13.5739ZM17.1466 12.1555H17.9328C18.2987 12.1555 18.6064 12.0689 18.8561 11.8956C19.1077 11.7197 19.2964 11.4483 19.4221 11.0812C19.5498 10.7117 19.6137 10.2351 19.6137 9.65139C19.6137 9.07283 19.5498 8.60002 19.4221 8.233C19.2964 7.86602 19.1086 7.59584 18.859 7.42251C18.6093 7.24917 18.3015 7.16253 17.9356 7.16253H17.1466V12.1555ZM23.7266 13.6886C23.2825 13.6886 22.8985 13.5625 22.5745 13.3101C22.2525 13.0553 22.0037 12.701 21.8284 12.2473C21.6531 11.7911 21.5654 11.2622 21.5654 10.6607C21.5654 10.0541 21.6531 9.52397 21.8284 9.07031C22.0037 8.61406 22.2525 8.25977 22.5745 8.00747C22.8985 7.75255 23.2825 7.62514 23.7266 7.62514C24.1706 7.62514 24.5537 7.75255 24.8757 8.00747C25.1997 8.25977 25.4494 8.61406 25.6247 9.07031C25.8001 9.52397 25.8877 10.0541 25.8877 10.6607C25.8877 11.2622 25.8001 11.7911 25.6247 12.2473C25.4494 12.701 25.1997 13.0553 24.8757 13.3101C24.5537 13.5625 24.1706 13.6886 23.7266 13.6886ZM23.7323 12.427C23.9343 12.427 24.1029 12.3506 24.2383 12.1976C24.3736 12.0421 24.4755 11.8306 24.5442 11.563C24.6146 11.2953 24.6499 10.9908 24.6499 10.6493C24.6499 10.3077 24.6146 10.0031 24.5442 9.7355C24.4755 9.4679 24.3736 9.25632 24.2383 9.10087C24.1029 8.94537 23.9343 8.86767 23.7323 8.86767C23.5283 8.86767 23.3568 8.94537 23.2177 9.10087C23.0805 9.25632 22.9766 9.4679 22.9061 9.7355C22.8375 10.0031 22.8032 10.3077 22.8032 10.6493C22.8032 10.9908 22.8375 11.2953 22.9061 11.563C22.9766 11.8306 23.0805 12.0421 23.2177 12.1976C23.3568 12.3506 23.5283 12.427 23.7323 12.427ZM27.4357 13.5739L26.2407 7.70158H27.4728L28.1532 11.6471H28.1932L28.9022 7.70158H30.1114L30.8318 11.6241H30.8689L31.5379 7.70158H32.7671L31.575 13.5739H30.2858L29.5311 9.8808H29.4768L28.7221 13.5739H27.4357ZM34.6345 10.179V13.5739H33.4167V7.70158H34.5773V8.73768H34.6288C34.726 8.39612 34.8889 8.12594 35.1176 7.92715C35.3465 7.72583 35.6237 7.62514 35.9495 7.62514C36.2544 7.62514 36.5204 7.71436 36.7472 7.89274C36.974 8.07118 37.15 8.32605 37.276 8.65736C37.4017 8.98619 37.4647 9.37868 37.4647 9.83492V13.5739H36.2467V10.1255C36.2488 9.76611 36.1802 9.48573 36.0409 9.28436C35.9019 9.08046 35.7105 8.97852 35.4665 8.97852C35.3024 8.97852 35.1575 9.0257 35.0318 9.11997C34.908 9.21429 34.8108 9.35191 34.7403 9.53287C34.6717 9.7113 34.6364 9.92667 34.6345 10.179ZM39.642 5.74414V13.5739H38.4244V5.74414H39.642ZM42.6016 13.6886C42.1575 13.6886 41.7735 13.5625 41.4494 13.3101C41.1274 13.0553 40.8789 12.701 40.7036 12.2473C40.5282 11.7911 40.4404 11.2622 40.4404 10.6607C40.4404 10.0541 40.5282 9.52397 40.7036 9.07031C40.8789 8.61406 41.1274 8.25977 41.4494 8.00747C41.7735 7.75255 42.1575 7.62514 42.6016 7.62514C43.0458 7.62514 43.4287 7.75255 43.7507 8.00747C44.0748 8.25977 44.3243 8.61406 44.4997 9.07031C44.675 9.52397 44.7629 10.0541 44.7629 10.6607C44.7629 11.2622 44.675 11.7911 44.4997 12.2473C44.3243 12.701 44.0748 13.0553 43.7507 13.3101C43.4287 13.5625 43.0458 13.6886 42.6016 13.6886ZM42.6072 12.427C42.8092 12.427 42.9779 12.3506 43.1133 12.1976C43.2488 12.0421 43.3506 11.8306 43.4192 11.563C43.4896 11.2953 43.5249 10.9908 43.5249 10.6493C43.5249 10.3077 43.4896 10.0031 43.4192 9.7355C43.3506 9.4679 43.2488 9.25632 43.1133 9.10087C42.9779 8.94537 42.8092 8.86767 42.6072 8.86767C42.4035 8.86767 42.232 8.94537 42.0927 9.10087C41.9555 9.25632 41.8516 9.4679 41.7812 9.7355C41.7126 10.0031 41.6783 10.3077 41.6783 10.6493C41.6783 10.9908 41.7126 11.2953 41.7812 11.563C41.8516 11.8306 41.9555 12.0421 42.0927 12.1976C42.232 12.3506 42.4035 12.427 42.6072 12.427ZM46.8065 13.6848C46.5265 13.6848 46.277 13.6198 46.0579 13.4898C45.8384 13.3573 45.6652 13.1623 45.5374 12.9049C45.4118 12.6449 45.3488 12.3212 45.3488 11.9338C45.3488 11.6076 45.3936 11.3336 45.4832 11.1119C45.5728 10.8901 45.6946 10.7117 45.8489 10.5766C46.0033 10.4415 46.1786 10.3396 46.375 10.2708C46.5731 10.2019 46.781 10.1535 46.9983 10.1255C47.2535 10.0898 47.4593 10.0567 47.6157 10.0261C47.7718 9.99295 47.8852 9.9445 47.9559 9.8808C48.0263 9.81709 48.0616 9.72277 48.0616 9.59788V9.57495C48.0616 9.33281 48.0046 9.14548 47.8901 9.01292C47.7778 8.8804 47.6175 8.81412 47.4099 8.81412C47.1908 8.81412 47.0162 8.87914 46.8867 9.00913C46.7572 9.13654 46.6714 9.29714 46.6294 9.49083L45.5031 9.36848C45.5602 9.01166 45.6729 8.70328 45.8405 8.44331C46.0082 8.18076 46.2245 7.97943 46.4894 7.83924C46.7561 7.69652 47.0648 7.62514 47.4155 7.62514C47.6595 7.62514 47.8929 7.66338 48.1159 7.73982C48.3409 7.81631 48.5401 7.93483 48.7133 8.09538C48.8887 8.25593 49.0269 8.4624 49.1281 8.71475C49.2289 8.96452 49.2793 9.264 49.2793 9.61319V13.5739H48.1246V12.7596H48.0903C48.0196 12.9431 47.9255 13.105 47.8072 13.2452C47.6892 13.3828 47.5471 13.4911 47.3812 13.5701C47.2153 13.6466 47.0239 13.6848 46.8065 13.6848ZM47.1555 12.5608C47.3347 12.5608 47.4929 12.5136 47.6301 12.4194C47.7673 12.3225 47.8747 12.1925 47.9531 12.0294C48.0312 11.8663 48.0704 11.6815 48.0704 11.475V10.8519C48.0322 10.885 47.9797 10.9156 47.9129 10.9436C47.8481 10.9691 47.775 10.9933 47.6927 11.0163C47.6108 11.0366 47.5289 11.0558 47.447 11.0736C47.3651 11.0889 47.2909 11.1029 47.2241 11.1157C47.0813 11.1437 46.9563 11.1883 46.8496 11.2495C46.7428 11.3107 46.6599 11.3935 46.6007 11.498C46.5419 11.5999 46.5122 11.7273 46.5122 11.8803C46.5122 12.102 46.5724 12.2715 46.6924 12.3887C46.8142 12.5035 46.9686 12.5608 47.1555 12.5608ZM51.8423 13.6695C51.5088 13.6695 51.2067 13.5548 50.9362 13.3254C50.6674 13.0935 50.4539 12.7532 50.2957 12.3047C50.1396 11.8535 50.0612 11.3005 50.0612 10.6454C50.0612 9.97254 50.1424 9.41309 50.3044 8.96705C50.4661 8.51848 50.6817 8.18333 50.9502 7.96155C51.2211 7.73729 51.5172 7.62514 51.8395 7.62514C52.0852 7.62514 52.29 7.68122 52.4541 7.79337C52.6197 7.90295 52.753 8.04057 52.8542 8.20627C52.9571 8.3694 53.0351 8.52995 53.0887 8.68797H53.1258V5.74414H54.3406V13.5739H53.1401V12.6335H53.0887C53.0313 12.7966 52.9504 12.9584 52.8458 13.119C52.7429 13.277 52.6085 13.4083 52.4426 13.5128C52.2788 13.6173 52.0786 13.6695 51.8423 13.6695ZM52.228 12.3735C52.4244 12.3735 52.5903 12.3021 52.7257 12.1594C52.8629 12.0141 52.9676 11.8115 53.04 11.5515C53.1142 11.2915 53.1517 10.9869 53.1517 10.6378C53.1517 10.2886 53.1153 9.98527 53.0428 9.72787C52.9704 9.47043 52.8657 9.27163 52.7285 9.13144C52.5913 8.99129 52.4244 8.92117 52.228 8.92117C52.0282 8.92117 51.8595 8.99382 51.7223 9.13912C51.5851 9.28436 51.4811 9.48573 51.4104 9.74318C51.3401 10.0006 51.3047 10.2988 51.3047 10.6378C51.3047 10.9793 51.3401 11.2814 51.4104 11.5439C51.4829 11.8038 51.5868 12.0077 51.7223 12.1555C51.8595 12.3008 52.0282 12.3735 52.228 12.3735Z" fill="white"/>
<path d="M62.3 0.701172H7.70002C3.73738 0.701172 0.525024 4.99733 0.525024 10.2969V11.7012C0.525024 17.0008 3.73738 21.2969 7.70002 21.2969H62.3C66.2627 21.2969 69.475 17.0008 69.475 11.7012V10.2969C69.475 4.99733 66.2627 0.701172 62.3 0.701172Z" stroke="white"/>
</g>
</g>
<defs>
<filter id="filter0_d_564_2" x="-4" y="-9" width="78" height="31" filterUnits="userSpaceOnUse" color-interpolation-filters="sRGB">
<feFlood flood-opacity="0" result="BackgroundImageFix"/>
<feColorMatrix in="SourceAlpha" type="matrix" values="0 0 0 0 0 0 0 0 0 0 0 0 0 0 0 0 0 0 127 0" result="hardAlpha"/>
<feOffset dy="-5"/>
<feGaussianBlur stdDeviation="2"/>
<feComposite in2="hardAlpha" operator="out"/>
<feColorMatrix type="matrix" values="0 0 0 0 0 0 0 0 0 0 0 0 0 0 0 0 0 0 0.54 0"/>
<feBlend mode="normal" in2="BackgroundImageFix" result="effect1_dropShadow_564_2"/>
<feBlend mode="normal" in="SourceGraphic" in2="effect1_dropShadow_564_2" result="shape"/>
</filter>
<linearGradient id="paint0_linear_564_2" x1="35.175" y1="1.4043" x2="34.8622" y2="11.698" gradientUnits="userSpaceOnUse">
<stop stop-color="#D9D9D9"/>
<stop offset="0.880208" stop-color="#D9D9D9" stop-opacity="0"/>
</linearGradient>
<clipPath id="clip0_564_2">
<rect width="70" height="22" rx="9" fill="white"/>
</clipPath>
</defs>
</svg>
