<svg width="900" height="900" viewBox="0 0 900 900" fill="none" xmlns="http://www.w3.org/2000/svg">
<path d="M550.5 53H266.5C173 89.5 33 240 19 347L55.5 643C79.5 742 152.214 758 233.5 837H666.5C735.5 790.5 813.5 724.5 851.5 619L889.5 480.5L877.5 347L813.5 203.714C770.5 117 653.935 53 550.5 53Z" fill="url(#paint0_radial_31_266)"/>
<path d="M588.5 46H258C157.5 117 93.5 196.5 45 269.5L15 383.5V522L45 622.5L83 685C123 773 149 759 246 835.5L372 882H550.5L640.5 835.5C820.5 745.5 876 586.172 876 482.5L794.5 245C794.5 141.328 691.935 46 588.5 46Z" fill="url(#paint1_radial_31_266)"/>
<path d="M865.5 331.5C829 134.5 587.935 16 484.5 16H401.5L330.5 32C227.065 32 31 227.828 31 331.5L74.5 615.5C74.5 719.172 145.565 813 249 813L602.5 826.5C705.935 826.5 841.5 719.172 841.5 615.5L865.5 331.5Z" fill="url(#paint2_radial_31_266)"/>
<path d="M625 316.5C625 337.21 608.21 354 587.5 354C566.79 354 550 337.21 550 316.5C550 295.789 566.79 279 587.5 279C608.21 279 625 295.789 625 316.5Z" fill="white"/>
<path fill-rule="evenodd" clip-rule="evenodd" d="M450 579C519.035 579 575 523.035 575 454C575 384.965 519.035 329 450 329C380.965 329 325 384.965 325 454C325 523.035 380.965 579 450 579ZM450 529C491.423 529 525 495.423 525 454C525 412.577 491.423 379 450 379C408.577 379 375 412.577 375 454C375 495.423 408.577 529 450 529Z" fill="white"/>
<path fill-rule="evenodd" clip-rule="evenodd" d="M200 444C200 359.993 200 317.988 216.349 285.902C230.73 257.677 253.677 234.73 281.902 220.349C313.988 204 355.993 204 440 204H460C544.007 204 586.012 204 618.097 220.349C646.322 234.73 669.27 257.677 683.65 285.902C700 317.988 700 359.993 700 444V464C700 548.007 700 590.012 683.65 622.097C669.27 650.322 646.322 673.27 618.097 687.65C586.012 704 544.007 704 460 704H440C355.993 704 313.988 704 281.902 687.65C253.677 673.27 230.73 650.322 216.349 622.097C200 590.012 200 548.007 200 464V444ZM440 254H460C502.83 254 531.943 254.039 554.448 255.877C576.37 257.668 587.58 260.915 595.4 264.899C614.215 274.487 629.512 289.785 639.1 308.6C643.085 316.42 646.333 327.63 648.123 349.552C649.96 372.057 650 401.17 650 444V464C650 506.83 649.96 535.943 648.123 558.448C646.333 580.37 643.085 591.58 639.1 599.4C629.512 618.215 614.215 633.512 595.4 643.1C587.58 647.085 576.37 650.333 554.448 652.123C531.943 653.96 502.83 654 460 654H440C397.17 654 368.057 653.96 345.552 652.123C323.63 650.333 312.42 647.085 304.6 643.1C285.785 633.512 270.487 618.215 260.899 599.4C256.915 591.58 253.668 580.37 251.877 558.448C250.039 535.943 250 506.83 250 464V444C250 401.17 250.039 372.057 251.877 349.552C253.668 327.63 256.915 316.42 260.899 308.6C270.487 289.785 285.785 274.487 304.6 264.899C312.42 260.915 323.63 257.668 345.552 255.877C368.057 254.039 397.17 254 440 254Z" fill="white"/>
<rect x="8.5" y="8.5" width="883" height="883" rx="441.5" stroke="white" stroke-width="17"/>
<defs>
<radialGradient id="paint0_radial_31_266" cx="0" cy="0" r="1" gradientUnits="userSpaceOnUse" gradientTransform="translate(327.143 673) rotate(-55.437) scale(797.811 797.163)">
<stop stop-color="#B13589"/>
<stop offset="0.79309" stop-color="#C62F94"/>
<stop offset="1" stop-color="#8A3AC8"/>
</radialGradient>
<radialGradient id="paint1_radial_31_266" cx="0" cy="0" r="1" gradientUnits="userSpaceOnUse" gradientTransform="translate(295.929 923.286) rotate(-65.1862) scale(706.591 705.546)">
<stop stop-color="#E0E8B7"/>
<stop offset="0.444662" stop-color="#FB8A2E"/>
<stop offset="0.71474" stop-color="#E2425C"/>
<stop offset="1" stop-color="#E2425C" stop-opacity="0"/>
</radialGradient>
<radialGradient id="paint2_radial_31_266" cx="0" cy="0" r="1" gradientUnits="userSpaceOnUse" gradientTransform="translate(-31.8222 47.2859) rotate(-8.14846) scale(1214.01 260.234)">
<stop offset="0.156701" stop-color="#406ADC"/>
<stop offset="0.467799" stop-color="#6A45BE"/>
<stop offset="1" stop-color="#6A45BE" stop-opacity="0"/>
</radialGradient>
</defs>
</svg>
