<svg width="190" height="20" viewBox="0 0 190 20" fill="none" xmlns="http://www.w3.org/2000/svg">
<path d="M11.328 5.216L11.232 5.408L11.16 5.096L11.112 4.592L11.064 4.232L10.848 3.992L10.728 3.752L10.68 3.608L10.464 3.2L10.296 2.984L9.96 2.84L9.792 2.576L9.504 2.432L9.168 2.336L9.024 2.192L8.688 2.168L8.616 2.048L8.424 1.976L8.016 2.048L7.728 2.024L7.464 2L7.2 2.048L6.864 2.144L6.408 2.192L6.312 2.384L6.12 2.408L5.856 2.576L5.52 2.864L5.232 3.056L5.016 3.344L4.944 3.632L4.776 3.704L4.584 3.968L4.272 4.28V4.568L4.152 4.856V5L4.08 5.264L4.032 5.576L4.008 5.84L3.888 6.104L3.36 6.128L3.648 6.608L3.552 6.944L3.6 7.4L3.552 7.784L3.528 8.216L3.552 8.696L3.384 9.2L3.48 9.68L3.504 9.848L3.528 10.04L3.6 10.352L3.12 10.64L3.648 10.952L3.72 11.264L3.648 11.6L3.84 11.984L4.008 12.392L4.056 12.728L4.272 12.992L4.44 13.328V13.616L4.68 13.976L4.776 14.192L5.16 14.48L5.376 14.744L5.64 14.96L5.856 15.344L6.168 15.416L6.456 15.584L6.648 15.752L7.152 15.848L7.608 15.872L7.824 15.824H8.328L8.448 15.872L8.88 15.752L9.168 15.632L9.264 15.704L9.528 15.632L9.816 15.56L10.032 15.392L10.344 15.224L10.56 15.056L10.68 14.768L10.968 14.528L11.112 14.24L11.304 14.048L11.424 13.712L11.592 13.496V13.208L11.88 12.992L11.832 12.608L11.808 12.344L11.88 12.056L12.024 11.6L11.928 11.48L12.048 11.264L12.456 11.12L12.696 11.192L12.768 11.552L12.816 11.72L12.84 12.08L12.888 12.296L12.72 12.632L12.672 12.992V13.256L12.6 13.64L12.288 13.832L12.384 14.048L12.024 14.36L12.144 14.672L11.928 14.936L11.736 15.248L11.52 15.56L11.376 15.608L10.968 15.848L10.728 16.136L10.584 16.208L10.152 16.136L10.08 16.496L9.768 16.568L9.096 16.736L8.856 16.928L8.616 16.904L8.184 16.952H7.824L7.488 17.024H7.272L6.888 17L6.72 16.928L6.432 16.88L5.928 16.832L5.712 16.424L5.352 16.616L4.944 16.592L4.704 16.424L4.44 16.328L4.368 16.232L3.888 16.04L3.576 15.656L3.288 15.44L3.168 14.84L2.76 14.96L2.664 14.744L2.376 14.48L2.136 14.216L2.064 13.928L2.016 13.664L1.728 13.376L1.608 12.848L1.536 12.56L1.2 12.32V11.984L1.224 11.72L1.152 11.576L1.104 11.096L1.128 10.616L0.936 10.352L0.96 10.016L0.864 9.704L0.72 9.44L0.912 9.2L1.296 8.792L0.888 8.48L1.032 8.048L1.128 7.688L1.08 7.304V6.944L1.224 6.608L1.104 6.248L1.224 5.912L1.176 5.552L1.416 5.264L1.488 4.808L1.68 4.496L1.752 4.232L2.256 4.064L2.064 3.68L2.352 3.392L2.592 3.128L2.832 2.696L3.144 2.528L3.48 2.24L3.768 2.024L3.864 1.832L4.248 1.712L4.44 1.52L4.92 1.376L5.184 1.256L5.64 1.424L5.736 1.064L6.12 1.016L6.288 0.991999L6.792 0.967999H7.176L7.464 1.016L7.752 0.871999L8.064 0.991999H8.448L8.784 1.136L9.192 1.208L9.528 1.256L9.984 1.472L10.272 1.64L10.536 1.712L10.872 1.808L11.256 1.88L11.472 1.904L11.88 1.952L12.288 1.856L12.648 1.808L13.032 1.76L12.744 2.096L12.552 2.528L12.288 2.984L11.88 3.176L11.976 3.584L11.856 4.016L11.688 4.448L11.4 4.784L11.472 5.072L11.328 5.216ZM28.902 9.44V9.752L28.974 10.04L28.854 10.352L29.022 10.568L28.854 10.928V11.216L28.71 11.624L28.758 12.056L28.59 12.368V12.728L28.398 12.92L28.302 13.304L28.134 13.688L27.63 13.712L27.918 14.216L27.726 14.336L27.534 14.792L27.294 14.984L27.078 15.2L26.934 15.416L26.55 15.68L26.262 16.016L25.854 16.136L25.518 16.352L25.254 16.52L24.894 16.304L24.822 16.664L24.366 16.76L23.982 16.832L23.79 16.88L23.502 16.976L23.094 17.048L22.926 16.952L22.566 17.048H22.134L21.822 17.024L21.678 16.904L21.15 16.808L20.622 16.664L20.238 16.472L19.83 16.304L19.542 16.16L19.47 15.968L19.134 15.872L19.014 15.704L18.678 15.464L18.462 15.296L18.174 15.104L18.438 14.576L17.958 14.6L17.742 14.144L17.55 13.832L17.382 13.592L17.19 13.376V12.992L17.142 12.944L17.094 12.656L16.974 12.488L16.878 12.248L16.83 11.72L16.782 11.384L16.662 11.168V10.832L16.734 10.448L16.758 9.992L16.566 9.728L16.59 9.512L16.542 9.248L16.71 8.864L17.166 8.672L16.758 8.216L16.782 8.048L16.734 7.688L16.926 7.304L16.974 6.992L17.07 6.68L17.358 6.392L17.214 6.344L17.286 6.056L17.526 5.768L17.694 5.48V5.216L17.91 4.88L18.486 4.76L18.39 4.328L18.63 4.088L18.942 3.824L19.254 3.608L19.398 3.416L19.758 3.248L20.118 3.128L20.526 3.2L20.574 2.84L20.934 2.744L21.294 2.696L21.654 2.672L21.942 2.6L22.446 2.48L22.806 2.552L23.214 2.504L23.55 2.624L23.742 2.576L24.078 2.648L24.342 2.696H24.678L24.798 2.816L24.87 3.176L25.494 3.008L26.046 3.344L26.238 3.488L26.502 3.656L26.838 3.896L26.79 3.944L27.054 4.256L27.414 4.568L27.63 4.856L27.366 5.24L27.918 5.288L28.158 5.624L28.326 6.032L28.302 6.368L28.398 6.848L28.566 7.04L28.758 7.496L28.782 7.808L28.758 8.096L28.83 8.408L28.926 8.936L28.518 9.056L28.902 9.44ZM26.526 9.968V9.752L26.502 9.296V9.104L26.574 8.816L26.454 8.504L26.31 8.048L26.358 7.76L26.622 7.352L26.166 7.088V6.752L26.094 6.392L25.758 6.128L25.662 5.84L25.638 5.48L25.374 5.072L25.23 4.808L25.038 4.616L24.894 4.352L24.534 4.088L24.366 3.896L24.078 3.824L23.838 3.656L23.55 3.488L23.43 3.464L23.07 3.44L22.83 3.368L22.47 3.44L22.206 3.488L21.726 3.56L21.51 3.752L21.078 3.848L21.102 3.944L20.766 4.208L20.55 4.616L20.118 5.048L19.974 5.336L19.806 5.576L19.638 6.008L19.518 6.296L19.35 6.728L19.014 6.848L19.182 7.304L19.206 7.592L19.158 7.88L19.11 8.192L18.966 8.672L19.134 8.96L19.038 9.248L18.966 9.536L18.99 9.8L19.062 10.088L19.134 10.4L19.158 10.688L18.654 10.904L19.086 11.264L19.134 11.432L19.278 11.792V12.248L19.374 12.608L19.446 12.992L19.518 13.184V13.472L19.71 13.64L19.902 13.976L19.83 14.24L20.262 14.504L20.454 14.816L20.502 14.96L20.862 15.272L21.174 15.488L21.342 15.68L21.414 15.728L21.822 15.944L22.254 16.016L22.614 16.04L22.95 15.992L23.334 15.968H23.55L23.958 15.8L24.246 15.68L24.558 15.464L24.726 15.272L24.99 15.032L25.182 14.792L25.326 14.504L25.83 14.336L25.686 13.976L25.806 13.592L26.094 13.208L26.118 12.92L26.31 12.56L26.478 12.2L26.334 11.912L26.358 11.576L26.382 11.312L26.55 10.976L26.958 10.712L26.574 10.352L26.526 9.968ZM43.3487 6.248L43.2527 5.84L43.2767 5.312L43.5167 5.024L43.2767 4.736V4.52L43.1567 4.304L43.0367 3.776L42.4847 3.224L42.0767 2.936H42.3647L42.6527 2.912H43.1327L43.4687 3.128L43.8767 2.888H44.9327L45.2927 2.96L45.0287 3.128L44.7407 3.392L44.5247 3.8L44.5967 3.776L44.3567 4.496L44.0927 4.88L44.2607 5.096L44.1407 5.576V6.032L44.1647 6.464L44.3087 6.968L44.2367 7.088L44.2607 7.4L44.3087 7.688L44.3327 8L43.9727 8.24L44.2367 8.672L44.1407 9.104L44.1887 9.464L44.2607 9.824L44.2847 10.088L44.3327 10.448L44.2607 10.76L44.3087 11.168L44.2847 11.696L44.2367 11.984L44.3087 12.344L44.3807 12.68L44.3087 13.256L43.9967 13.4L44.3567 13.784L44.2367 14.072L44.2127 14.384V14.696L44.3087 15.104L44.2127 15.44L44.2847 15.8L44.3807 16.136L44.3087 16.616L43.7327 16.688L43.4207 16.592L43.0847 16.568L42.7727 16.52L42.3647 16.592L42.0767 16.136L41.7167 15.68V15.224L41.1887 15.08L41.0207 14.576L40.4447 13.856L40.3007 13.592L40.1807 13.304L40.1327 13.112L39.6047 12.584V12.32L39.4607 12.08L39.3407 11.816V11.36L38.9087 11.192L38.8607 10.88L38.5247 10.568L38.2607 10.088L37.9967 9.656L37.7567 9.344L37.6367 9.104L37.3967 8.864L37.1807 8.624L37.0847 8.264L37.1807 7.688L36.7487 7.736L36.6047 7.448L36.3167 7.112L36.1487 6.656L36.0287 6.272L35.7887 5.96L35.5247 5.6L35.1887 5.336L35.2847 5.96V6.008L35.2607 6.44V6.848L35.2367 7.088L35.2847 7.4L35.3567 7.712L35.3087 8.048L35.2847 8.384V8.576L35.2367 8.864L35.1887 9.176L35.1647 9.488L35.2847 9.728L35.3567 10.136L35.2847 10.496L35.3087 11.192L34.9487 11.48L35.2607 11.792L35.2847 12.296L35.2127 12.608L35.2847 12.968L35.3807 13.304L35.3567 13.64L35.2367 14.048V14.336L35.3327 14.528L35.4047 14.936L35.5967 15.32L35.5487 15.488L35.5727 15.776L35.8367 16.04L36.0287 16.328L36.1727 16.52L35.6927 16.664L35.1887 16.568L34.9247 16.4L34.5167 16.592L34.1327 16.664L33.7727 16.712L33.7007 16.592L33.2447 16.568L33.4127 16.28L33.7727 16.088L33.9167 15.824L34.1807 15.512L34.0847 15.224L34.2527 14.96L34.3247 14.648L34.2287 14.312L34.2767 14.048L34.3007 13.712L34.3487 13.448L34.4207 13.16L34.3727 12.872L34.3487 12.56L34.3727 12.464V12.032L34.3487 11.696V11.336L34.3727 11.024L34.4447 10.544L34.4207 10.16V9.752L34.3967 9.248L34.3487 9.104L34.4207 8.816L34.6607 8.528L34.4927 8.264L34.4687 7.976L34.3007 7.64L34.3247 7.328L34.3727 6.992L34.3487 6.632L34.2527 6.056V5.768L34.2767 5.456L34.3727 5.384V4.664L34.3247 4.232L34.1807 3.968L33.8927 3.68L33.5087 3.104L33.1967 2.912H33.9407L34.2527 2.888L34.5407 2.84L34.8527 2.816L35.0447 2.96L35.4767 2.912H35.9087L36.2447 3.2L36.6287 2.84L37.0367 2.888L37.3727 2.864H37.6367L37.9247 2.84L37.5887 3.464L37.3727 3.608L37.1807 4.04L37.2527 4.328L37.3487 4.592L37.0847 4.952L37.6847 5.12L37.9247 5.648L38.1407 5.864L38.3807 6.056L38.4767 6.392L38.6447 6.68L38.8367 6.944L38.9807 7.208L39.1727 7.544L39.3887 7.856L39.7007 8.216L39.7727 8.384L39.8927 8.72L39.7487 9.128L40.2527 9.248L40.4687 9.44L40.4927 9.632L40.6367 9.872L40.8047 10.088L41.1647 10.448L41.2847 10.712L41.4767 10.976L41.6687 11.216L41.7647 11.576L41.8847 11.84L42.0287 12.08L42.1967 12.368L42.0287 12.704L42.4847 12.752L42.7007 13.136L42.9167 13.352L43.1567 13.544L43.3727 13.76L43.3487 13.472V13.16L43.4687 12.656L43.3967 12.296L43.3487 11.672L43.2767 11.408V10.976L43.5647 10.664L43.3247 10.424L43.2767 9.992L43.2527 9.44V9.08L43.3247 8.6L43.3487 8.456L43.3967 7.832L43.5887 7.328L43.2767 7.04L43.2527 6.704L43.3487 6.248ZM59.2159 6.248L59.1199 5.84L59.1439 5.312L59.3839 5.024L59.1439 4.736V4.52L59.0239 4.304L58.9039 3.776L58.3519 3.224L57.9439 2.936H58.2319L58.5199 2.912H58.9999L59.3359 3.128L59.7439 2.888H60.7999L61.1599 2.96L60.8959 3.128L60.6079 3.392L60.3919 3.8L60.4639 3.776L60.2239 4.496L59.9599 4.88L60.1279 5.096L60.0079 5.576V6.032L60.0319 6.464L60.1759 6.968L60.1039 7.088L60.1279 7.4L60.1759 7.688L60.1999 8L59.8399 8.24L60.1039 8.672L60.0079 9.104L60.0559 9.464L60.1279 9.824L60.1519 10.088L60.1999 10.448L60.1279 10.76L60.1759 11.168L60.1519 11.696L60.1039 11.984L60.1759 12.344L60.2479 12.68L60.1759 13.256L59.8639 13.4L60.2239 13.784L60.1039 14.072L60.0799 14.384V14.696L60.1759 15.104L60.0799 15.44L60.1519 15.8L60.2479 16.136L60.1759 16.616L59.5999 16.688L59.2879 16.592L58.9519 16.568L58.6399 16.52L58.2319 16.592L57.9439 16.136L57.5839 15.68V15.224L57.0559 15.08L56.8879 14.576L56.3119 13.856L56.1679 13.592L56.0479 13.304L55.9999 13.112L55.4719 12.584V12.32L55.3279 12.08L55.2079 11.816V11.36L54.7759 11.192L54.7279 10.88L54.3919 10.568L54.1279 10.088L53.8639 9.656L53.6239 9.344L53.5039 9.104L53.2639 8.864L53.0479 8.624L52.9519 8.264L53.0479 7.688L52.6159 7.736L52.4719 7.448L52.1839 7.112L52.0159 6.656L51.8959 6.272L51.6559 5.96L51.3919 5.6L51.0559 5.336L51.1519 5.96V6.008L51.1279 6.44V6.848L51.1039 7.088L51.1519 7.4L51.2239 7.712L51.1759 8.048L51.1519 8.384V8.576L51.1039 8.864L51.0559 9.176L51.0319 9.488L51.1519 9.728L51.2239 10.136L51.1519 10.496L51.1759 11.192L50.8159 11.48L51.1279 11.792L51.1519 12.296L51.0799 12.608L51.1519 12.968L51.2479 13.304L51.2239 13.64L51.1039 14.048V14.336L51.1999 14.528L51.2719 14.936L51.4639 15.32L51.4159 15.488L51.4399 15.776L51.7039 16.04L51.8959 16.328L52.0399 16.52L51.5599 16.664L51.0559 16.568L50.7919 16.4L50.3839 16.592L49.9999 16.664L49.6399 16.712L49.5679 16.592L49.1119 16.568L49.2799 16.28L49.6399 16.088L49.7839 15.824L50.0479 15.512L49.9519 15.224L50.1199 14.96L50.1919 14.648L50.0959 14.312L50.1439 14.048L50.1679 13.712L50.2159 13.448L50.2879 13.16L50.2399 12.872L50.2159 12.56L50.2399 12.464V12.032L50.2159 11.696V11.336L50.2399 11.024L50.3119 10.544L50.2879 10.16V9.752L50.2639 9.248L50.2159 9.104L50.2879 8.816L50.5279 8.528L50.3599 8.264L50.3359 7.976L50.1679 7.64L50.1919 7.328L50.2399 6.992L50.2159 6.632L50.1199 6.056V5.768L50.1439 5.456L50.2399 5.384V4.664L50.1919 4.232L50.0479 3.968L49.7599 3.68L49.3759 3.104L49.0639 2.912H49.8079L50.1199 2.888L50.4079 2.84L50.7199 2.816L50.9119 2.96L51.3439 2.912H51.7759L52.1119 3.2L52.4959 2.84L52.9039 2.888L53.2399 2.864H53.5039L53.7919 2.84L53.4559 3.464L53.2399 3.608L53.0479 4.04L53.1199 4.328L53.2159 4.592L52.9519 4.952L53.5519 5.12L53.7919 5.648L54.0079 5.864L54.2479 6.056L54.3439 6.392L54.5119 6.68L54.7039 6.944L54.8479 7.208L55.0399 7.544L55.2559 7.856L55.5679 8.216L55.6399 8.384L55.7599 8.72L55.6159 9.128L56.1199 9.248L56.3359 9.44L56.3599 9.632L56.5039 9.872L56.6719 10.088L57.0319 10.448L57.1519 10.712L57.3439 10.976L57.5359 11.216L57.6319 11.576L57.7519 11.84L57.8959 12.08L58.0639 12.368L57.8959 12.704L58.3519 12.752L58.5679 13.136L58.7839 13.352L59.0239 13.544L59.2399 13.76L59.2159 13.472V13.16L59.3359 12.656L59.2639 12.296L59.2159 11.672L59.1439 11.408V10.976L59.4319 10.664L59.1919 10.424L59.1439 9.992L59.1199 9.44V9.08L59.1919 8.6L59.2159 8.456L59.2639 7.832L59.4559 7.328L59.1439 7.04L59.1199 6.704L59.2159 6.248ZM66.5391 10.016L66.5871 9.704L66.2031 9.68L65.7711 9.632L65.6031 9.728L65.1471 9.872L64.9311 9.944L64.5711 10.04L64.6191 9.728L64.9071 9.368L65.1951 9.08L65.5551 8.96L65.8911 8.816H66.4191L66.3951 8.288L66.4671 8L66.7551 7.664L66.4191 7.256L66.4671 7.064L66.5631 6.296L66.4431 5.984L66.7551 5.672L66.4911 5.432L66.4671 5.072V4.712L66.5391 4.304L66.3231 4.136L66.1071 3.944L65.9391 3.704L65.7231 3.488L65.4831 3.272L65.0991 2.888H65.5071L65.7711 2.912L66.0591 2.936L66.3711 2.912L66.7071 2.864L66.9711 3.152L67.4991 2.888L67.9551 2.912H68.3151L68.5791 2.864L68.8671 2.816L69.2031 2.912L69.4911 2.936H69.8031L70.1151 2.888L70.4511 2.816L70.7631 2.888L71.1231 2.912H71.4831L71.8911 2.84L72.1551 2.912L72.4191 2.96L72.7071 2.984L73.2351 2.912L73.5951 2.96L74.0991 2.912L74.6511 3.008L75.1311 2.912L75.4191 2.888H75.7311L75.9711 2.864L76.2351 2.912L76.5231 2.96L76.3071 3.152L75.9711 3.488L75.9471 3.656L75.7551 4.016L75.4431 3.944L75.5151 4.352L75.2991 4.664L75.0591 4.808L75.1551 5.048L74.9871 5.384L74.7471 5.768L74.6271 5.384L74.3871 5.12L74.1231 4.832L73.9311 4.568L73.7151 4.376L73.3791 4.28L73.1631 4.064L72.8271 3.968L72.3951 3.872L72.0111 3.848L71.7711 3.776L71.4351 3.8H71.1231L70.7871 3.824L70.7391 3.776L70.4271 3.752L70.1151 3.704L69.8271 3.776L69.1551 3.824L68.6511 3.752V4.424L68.3391 4.64L68.6751 5.024L68.7471 5.432V5.864L68.6031 6.44L68.6511 6.944L68.5551 7.4L68.6991 7.784L68.7231 8.168L68.7711 8.528L68.6751 8.792H69.9951L70.2831 8.816L70.7631 8.792L71.4831 8.696L71.7471 8.792L72.3711 8.168L72.6831 7.736L73.0431 7.496L72.9471 7.928L72.9711 8.288L72.8031 8.6L73.0191 8.888V9.224L73.0431 9.56L72.9951 9.92V10.256L73.1151 10.472L73.1631 10.928L72.9471 10.688L72.7551 10.448L72.5151 10.424L71.7951 9.848V9.68H71.4111L71.0271 9.656H70.8591L70.3311 9.704L69.9471 9.656H69.2751L68.6991 9.704L68.5791 10.064L68.6271 10.448L68.3391 10.712L68.6511 11.048L68.6991 11.648L68.6511 12.008L68.6271 12.464L68.6031 12.824L68.6751 13.136L68.7711 13.448L68.6511 13.76L68.6031 14.048L68.2671 14.336L68.5791 14.648L68.6031 14.984L68.6511 15.104L68.6991 15.728H69.0831L69.4911 15.68L69.7791 15.728L70.2831 15.68L70.8591 15.728H71.3151L71.7471 15.752L71.7711 15.704L72.1071 15.824L72.3711 15.68L72.7311 15.56L73.0671 15.392L73.4751 15.296L73.6911 15.176L74.1471 14.888L74.5071 14.552L74.7711 14.24L75.0831 13.832L75.2271 13.664L75.4191 13.856L75.6111 14.264V14.648L75.8031 14.792L75.9231 15.296L76.1631 15.536L76.4271 15.776L76.4991 16.208L76.7391 16.424L77.0031 16.616L76.5951 16.568L76.1871 16.496L76.0911 16.592L75.7071 16.64L75.3471 16.664L75.0831 16.592L74.7471 16.352L74.5071 16.544H73.9071L73.6431 16.592L73.1631 16.52L72.7791 16.616L72.4671 16.64H72.1791L71.7471 16.616L71.3391 16.592L70.7151 16.64L70.6911 16.592L70.3551 16.568L70.0431 16.52L69.7071 16.496L69.5631 16.592L69.2271 16.616H68.8911L68.7711 16.592L68.4831 16.616H68.1951L67.8831 16.64L67.5711 16.328L67.2591 16.64L66.9231 16.592L66.5391 16.64L66.3711 16.592L66.0831 16.616L65.8191 16.64L65.3631 16.544L65.6271 16.112L65.6991 15.992L65.9151 15.776L66.1551 15.56L66.4191 15.2L66.5391 14.84L66.4911 14.432L66.4671 14.048L66.4431 13.64L66.7551 13.304L66.4911 12.992L66.4431 12.68L66.4911 12.536V11.672L66.5151 11.336L66.4671 11L66.5391 10.736L66.6111 10.448L66.5151 10.328L66.5391 10.016ZM90.1862 5.936L90.1142 6.32L89.9942 6.056L89.8502 5.72L89.7302 5.48L89.5142 5.216L89.3702 4.856L89.0822 4.52L89.0342 4.424L88.7462 4.232L88.3382 3.872L88.0742 3.68L87.6182 3.536L87.4022 3.512L87.1142 3.536L86.8502 3.488L86.4902 3.32L86.0582 3.512L85.6982 3.584L85.4342 3.608L85.4102 3.656L84.9302 3.944L84.5222 4.16L84.2102 4.4L83.9222 4.688L83.7302 4.952L83.5862 5.288L83.3222 5.552H83.4182L83.2982 5.912L82.8662 6.176L83.0342 6.464V6.704L82.8662 6.968L82.7462 7.304L82.7942 7.376L82.6262 7.832V8.456L82.6742 8.792L82.6262 9.128L82.2422 9.392L82.5542 9.68L82.6502 9.944L82.4822 10.376L82.5782 10.64L82.5542 10.928L82.5062 11.24L82.6742 11.624L82.7702 11.936L82.8422 12.224L83.0582 12.704L82.8422 12.968L83.2502 13.304L83.3462 13.76L83.5862 14.168L83.7782 14.528L84.0182 14.792L84.1862 14.984L84.4742 15.248L84.9062 15.536L85.3862 15.8L85.6982 15.896L86.0342 15.992L86.3702 16.112L86.5382 16.04L87.0182 16.016L87.4502 15.896L87.9542 15.848L88.4102 15.728L88.7702 15.512L89.2262 15.176L89.5382 14.816L89.7542 14.504L90.0422 14.096L90.1382 13.616L90.2582 13.304L90.3782 13.016L90.4502 12.632L90.4742 12.344L90.6422 11.96L90.9542 11.768L91.1462 11.984V12.392L91.1702 12.728L90.9062 13.088L91.1462 13.184L91.2422 13.544L91.0262 13.856L90.8822 14.048L90.7622 14.336L90.7862 14.456L90.6662 14.696L90.5942 14.96L90.2582 15.344L89.9702 15.368L89.9222 15.704L89.8022 15.776L89.6342 16.016L89.3462 16.16L88.9862 16.208L88.8182 16.376L88.4102 16.688L88.0022 16.76H87.5462L87.2102 16.904L86.8262 16.928H86.4422L86.1062 17L85.6262 16.88H85.3142L84.9542 16.832L84.5702 16.712L84.4502 16.4L84.0902 16.52L83.7782 16.448L83.2742 16.136L82.8902 16.016L82.6502 15.848L82.3142 15.536L82.0982 15.344L81.9542 15.032L81.4982 14.744L81.6422 14.36L81.2822 14.336L81.0422 14.048L80.9462 13.736L80.8742 13.4L80.5862 12.992L80.6342 12.968L80.4662 12.608V12.296L80.2982 11.936L80.2502 11.648L80.2742 11.576V11.336L80.1542 11.024L80.0102 10.64L80.3222 10.376L80.0342 9.944L80.1302 9.584L80.1062 9.248L80.1302 8.816L80.1542 8.432V8.12L80.5622 7.784L80.3222 7.424L80.4182 7.256L80.5862 6.92L80.6102 6.656L80.7302 6.32L80.7062 6.08L80.9942 5.816L81.0182 5.504L81.1622 5.216L81.4262 4.88L81.6182 4.496L81.9542 4.304L82.3382 4.232V3.944L82.6262 3.632L83.0582 3.416L83.4182 3.128L83.6342 3.008L84.0182 2.96H84.3302L84.5222 2.72L84.8102 2.672L84.9302 2.624L85.2902 2.576L85.6742 2.552L85.9622 2.504L86.2262 2.48L86.5382 2.504H86.8502L87.0902 2.576H87.4502L87.7142 2.744L88.1702 2.84L88.4582 3.032L88.6742 3.008L88.9382 3.128L89.3942 3.344L89.5382 3.368L89.9942 3.44L90.4742 3.536L90.7862 3.416H91.1942L91.5542 3.248L91.6022 3.392L91.3142 3.872L91.1462 4.208L90.7622 4.304L90.8822 4.64L90.5702 5.072L90.3542 5.504L90.1862 5.936ZM100.389 4.304L100.365 3.824H100.125L99.717 3.8H99.117L98.445 3.848L98.349 3.992L97.917 4.064L97.773 4.112L97.533 4.184L97.245 4.352L97.029 4.544L96.741 4.736L96.621 4.952L96.333 5.24L96.165 5.456L96.117 5L95.901 4.712L95.661 4.4L95.733 4.376L95.637 3.848L95.373 3.536L95.181 3.296L95.037 2.96L95.325 2.912L95.637 2.864L95.973 2.936L96.333 2.984L96.405 2.912H96.813L97.677 2.816L97.941 2.936L98.325 2.912L98.829 2.84L99.189 2.912L99.621 2.96L100.005 2.864L100.629 2.912L101.157 2.936L101.421 3.152L101.757 2.888L102.285 2.792L102.453 2.912H102.981L103.317 2.888H103.629L103.965 2.864L103.869 2.912L104.205 2.936L104.565 2.96L104.901 2.912L105.237 2.84L105.669 2.936L105.933 2.912H107.445L107.901 2.888L107.709 3.2L107.565 3.584L107.373 3.896L107.085 4.04L107.181 4.4L107.013 4.784L106.797 5.216V5.432L106.605 5.24L106.413 4.928L106.197 4.616L106.005 4.544L105.741 4.256L105.549 4.208L105.261 4.064L104.997 4.016L104.541 3.896L104.301 3.872L103.917 3.824V3.848L103.629 3.8L103.221 3.872L102.981 3.824L102.549 3.848L102.621 4.232L102.597 5.024L102.117 5.192L102.597 5.552L102.501 5.96L102.573 6.296L102.645 6.608V7.184L102.549 7.376L102.621 7.856L102.525 8.144L102.453 8.408L102.525 8.696L102.597 8.96L102.189 9.2L102.549 9.512L102.621 9.968L102.597 10.424L102.549 10.76V11.288L102.597 11.648L102.501 11.984L102.189 12.344L102.477 12.608L102.501 12.92L102.549 13.232L102.573 13.592L102.477 13.88L102.405 14.144L102.525 14.552L102.669 14.96L102.573 15.224L102.813 15.464L103.077 15.704L103.293 15.896L103.509 16.064L103.461 16.16L103.677 16.4L103.917 16.616L103.605 16.592L103.317 16.544L103.005 16.568H102.717L102.645 16.592H101.973L101.613 16.28L101.301 16.616L100.701 16.592L100.221 16.64H99.333L99.045 16.616L99.309 16.352L99.549 15.872L99.861 15.68L100.173 15.464L100.317 15.224L100.437 14.864L100.365 14.456V13.904L100.557 13.568L100.293 13.208L100.245 12.896L100.317 12.56L100.461 12.176L100.341 11.744L100.821 11.48L100.413 11.192L100.485 11L100.461 10.544L100.413 10.256L100.389 9.968V9.608L100.293 9.152L100.413 8.72L100.485 8.24L100.509 7.928L100.893 7.616L100.533 7.328L100.485 7.016L100.461 6.752L100.437 6.464L100.389 6.32L100.485 5.936L100.437 5.264L100.533 4.64L100.389 4.304ZM123.616 12.176L123.592 12.392L123.616 12.776L123.496 13.256L123.4 13.736L123.28 14.192L123.088 14.648L122.536 14.744L122.752 15.104L122.632 15.368L122.44 15.536L122.2 15.752L121.936 16.016L121.648 16.112L121.384 16.256L121.168 16.424L120.904 16.52L120.184 16.76L119.656 16.808L119.488 16.88H119.152L118.768 17L118.384 16.976L117.952 16.904L117.832 16.952L117.472 16.928H117.208L116.8 16.88L116.584 16.904L116.296 16.76L115.888 16.664L115.48 16.52L115.168 16.4L114.88 16.256L114.496 16.184L114.28 16.088L113.968 15.92L113.536 15.8H113.272L113.032 15.776L112.648 15.68L112.288 15.704L111.928 15.776L111.448 15.848L111.328 15.896L110.968 16.088L111.184 15.656L111.664 15.368L111.76 15.152L111.904 14.792L112.384 14.456L112.24 14.096L112.528 13.664L112.72 13.28L112.648 12.968L112.816 12.512L113.032 12.656L113.224 13.016L113.368 13.28L113.464 13.496L113.656 13.88L113.896 14.192L114.112 14.456L114.304 14.672L114.616 14.864L114.952 15.176L115.216 15.248L115.432 15.416L115.768 15.584L116.128 15.728L116.488 15.8L116.728 15.824L117.016 15.848L117.328 15.92L117.784 15.872L118.192 15.992L118.408 15.968L118.72 15.776L119.056 15.824L119.44 15.632L119.896 15.488L120.208 15.344L120.232 15.224L120.424 15.032L120.856 14.792L120.784 14.48L120.928 14.192L121 13.976L121.072 13.448L121 13.04L121.024 12.584L120.952 12.272L120.76 12.056L120.544 11.672L120.352 11.432L120.136 11.168L119.824 11.048V10.928L119.584 10.784L119.272 10.688L119.032 10.496L118.936 10.04L118.456 10.184L118.144 10.112L117.88 10.088L117.568 9.992L117.328 9.872L116.728 9.68V9.704L116.344 9.56L115.888 9.584L115.672 9.392L115.384 9.296L115.312 9.248L114.976 9.08L114.712 9.056V8.576L114.232 8.768L114.04 8.624L113.8 8.48L113.56 8.312L113.248 8.12L112.936 7.736L112.696 7.496L112.576 7.232L112.36 6.992L112.144 6.488L112.624 5.96L112.144 5.72L112.048 5.432L112 5.072V4.664L112.072 4.352L112.264 3.992L112.144 3.656L112.36 3.416L112.336 3.176L112.552 2.84L112.648 2.576L112.936 2.288L113.536 2.168L113.56 1.736L114.304 1.352L114.616 1.208L114.928 1.16L115.288 1.088L115.624 0.991999L116.032 1.04H116.296L116.536 0.896L117.016 0.943999H117.352L117.688 1.064L118.168 1.184L118.624 1.136L118.864 1.208L119.176 1.256L119.296 1.304L119.584 1.448L119.896 1.52L120.28 1.496L120.232 1.568L120.616 1.688L120.904 1.808L121.36 1.784L121.576 1.76L122.032 1.784L122.296 1.736L122.488 1.688L122.728 1.616L123.04 1.592L122.824 1.832L122.632 2.048L122.464 2.456L122.224 2.864L121.792 3.008L121.984 3.416L121.888 3.704L121.72 3.92L121.552 4.208L121.336 4.664L121.192 4.4L121.072 4.04L120.904 3.944L120.784 3.632L120.664 3.464L120.424 3.152L120.16 2.936L119.848 2.672L119.608 2.384L119.32 2.168L118.96 2.192L118.576 2.072L118.144 1.952L117.928 1.856L117.568 1.904H117.376L117.088 1.928L116.656 2L116.224 2.048V2.096L115.792 2.384L115.504 2.528L115.168 2.648L114.928 2.984L114.784 3.248L114.76 3.632L114.4 3.728L114.616 4.064L114.472 4.352L114.448 4.712L114.616 4.832L114.76 5.24L114.808 5.672L115.048 5.912L115.288 6.32L115.6 6.416L115.864 6.632L116.08 6.824L116.44 6.896L116.704 7.016L116.848 7.16L117.112 7.208L117.016 7.664L117.664 7.376L118.024 7.496L118.216 7.616L118.696 7.712L119.056 7.952L119.344 8.072H119.632L119.896 8.096L120.352 8.216L120.616 8.312L121 8.408L121.192 8.648L121.552 8.816L121.84 8.912L121.72 9.32L122.32 9.224L122.656 9.584L122.848 9.92L123.064 10.4L123.232 10.568L123.4 10.88L123.592 11.096L123.64 11.6L123.232 11.864L123.616 12.176ZM134.962 16.808L134.698 16.904L134.338 16.928L134.002 17L133.786 16.976H133.402L133.21 16.952H132.682L132.466 16.856H132.25L132.058 16.784L131.722 16.712L131.458 16.64L131.218 16.544L130.81 16.424L130.642 16.256L130.45 16.16L130.138 15.944V15.536H129.634L129.466 15.32L129.25 15.056L128.89 14.792L128.794 14.624L128.578 14.384L128.458 14.12L128.362 13.808L128.314 13.424L128.146 13.232L128.026 12.92L128.266 12.44L127.858 12.392L127.738 12.08V11.768L127.642 11.552L127.474 11.168L127.45 10.904L127.618 10.76L127.474 10.376L127.45 10.112L127.378 9.824L127.306 9.464L127.354 9.08L127.546 8.576V8.288L127.666 7.928L128.122 7.688L127.786 7.352L127.738 7.136L127.834 6.776L127.906 6.536L128.05 6.272L128.17 5.888L128.314 5.552L128.53 5.312L128.746 5.048L128.986 4.784L129.01 4.592L129.586 4.448L129.442 4.064L129.586 3.872L130.042 3.584L130.258 3.464L130.546 3.272L130.786 3.128L130.93 3.056L131.17 2.984L131.482 2.84L131.986 2.672H132.298L132.682 2.624L133.162 2.528L133.426 2.552H133.738L134.002 2.6L134.338 2.624H134.794L135.034 2.672L135.418 2.744L135.802 2.84L136.258 2.96L136.306 3.296H136.738L137.098 3.536L137.434 3.776L137.722 3.992L137.866 4.16L138.082 4.352L138.322 4.544L138.058 4.928L138.514 5.072L138.754 5.384L138.898 5.648L139.018 5.888L139.114 6.176L139.162 6.56L139.354 6.92L139.522 7.256L139.45 7.352L139.57 7.88L139.21 8.12L139.666 8.336L139.738 8.648L139.642 8.936L139.714 9.248L139.738 9.584L139.786 10.28L139.498 10.472L139.69 10.856L139.642 11.216L139.594 11.408L139.618 11.72L139.594 12.056L139.474 12.344L139.33 12.608L139.234 13.016L139.114 13.328L139.09 13.568L138.802 13.856L138.322 13.928L138.49 14.36L138.298 14.552V14.768L137.962 15.056L137.89 15.224L137.602 15.464L137.41 15.728L137.05 15.968L136.762 16.184L136.402 16.328L136.738 16.64L137.05 16.952L137.386 17.12L137.866 17.288L138.178 17.408H138.466L138.826 17.456L139.09 17.384L139.522 17.288L139.258 17.6L138.994 18.08L138.754 18.224L138.826 18.584L138.682 18.944L138.562 19.28L138.202 19.136L137.842 19.064L137.218 18.92L137.074 18.896L136.81 18.704L136.402 18.512L135.922 18.248L135.802 18.032L135.634 17.744L135.37 17.552L135.202 17.168L134.962 16.808ZM133.57 14.288L133.762 14L134.05 14.048L134.362 14.144L134.53 14.24L134.818 14.456L135.082 14.744L135.226 14.888L135.442 15.248L135.826 15.008L136.042 14.768L136.114 14.528L136.354 14.264L136.522 13.952L136.858 13.52L136.81 13.256L136.954 12.968L136.93 12.728L137.098 12.344L137.05 11.96L137.218 11.672L137.242 11.432V11.288L137.338 10.976L137.41 10.76L137.722 10.52L137.338 10.28L137.41 9.776L137.338 9.536L137.29 9.2L137.41 8.648L137.314 8.552L137.29 8.288L137.314 7.928L137.17 7.568L137.218 7.352L137.05 7.16L136.954 6.68L136.858 6.344L136.81 6.008L136.714 5.744L136.546 5.552L136.186 4.832L135.97 4.592L135.826 4.4L135.514 4.064L135.13 3.848L134.914 3.68L134.434 3.584L134.338 3.536L133.93 3.464L133.786 3.512L133.33 3.464L132.946 3.488L132.442 3.56L132.25 3.776L132.01 3.896L131.746 4.16L131.554 4.304L131.05 4.4L131.17 4.736L130.978 5.24L130.762 5.408L130.594 5.816L130.402 6.104V6.224L130.258 6.752L130.21 6.992L130.042 7.256L129.946 7.64L130.042 7.952L130.018 8.312L129.898 8.648V9.224L129.562 9.416L129.874 9.8V10.304L129.898 10.832L129.874 11.12L129.97 11.384L130.042 11.672L130.114 11.936L130.042 12.296L130.234 12.656L130.33 13.016L130.546 13.376L130.642 13.712L130.666 14.024L130.786 14.336L131.098 14.504L131.338 14.936L131.698 15.296L131.914 15.416L132.106 15.656L132.442 15.728L132.874 15.968L133.258 16.064H133.57L133.882 16.04L134.17 15.968L134.578 15.92L134.41 15.728L134.218 15.464L134.146 15.128L133.906 14.912L133.738 14.744L133.402 14.576L133.57 14.288ZM154.809 4.112L154.617 4.304L154.569 4.688L154.689 5.12L154.665 5.456V5.768L154.593 6.08V6.752L154.617 7.064V7.376L154.641 7.4L154.689 7.712L154.665 8.24L154.305 8.48L154.641 8.768V9.152L154.617 9.44L154.569 9.752L154.641 9.968L154.713 10.328V10.736L154.737 11.264L154.593 12.272L154.521 12.68L154.545 12.992L154.617 13.304L154.521 13.616L154.449 14.456L154.065 14.432L154.209 14.84L154.041 15.032L153.849 15.32L153.609 15.536L153.513 15.752L153.129 15.992L152.865 16.352L152.601 16.448L152.025 16.736L151.593 16.808L151.209 16.952H150.129L149.649 16.904L149.337 16.928L149.241 16.952H148.737L148.425 16.856L148.065 16.784L147.969 16.736L147.705 16.64L147.177 16.568L147.033 16.04L146.673 16.16L146.409 16.016L146.337 15.752L146.049 15.488L145.929 15.368L145.761 15.128L145.569 14.864L145.425 14.384L145.281 14L145.137 13.64L145.041 13.28L145.113 12.896L145.065 12.08L145.113 11.696L145.497 11.408L145.065 11.144L145.113 10.832L145.185 10.52L145.089 10.136V9.728L145.113 9.32L145.041 8.84L145.089 8.456L145.041 7.88L145.209 7.424L145.137 7.232L145.449 6.824L145.137 6.44L145.089 6.032L145.137 5.888L145.065 5.408V4.856L145.017 4.328L144.801 4.064L144.609 3.8L144.633 3.728L144.297 3.416L144.081 3.128L143.889 2.816L144.225 2.912L144.513 2.96L144.801 2.984L145.377 2.936L145.713 2.912L145.977 3.2L146.433 2.864L146.841 2.792L147.009 2.912L147.345 2.96L147.705 2.984L147.993 2.96L148.305 2.936L148.713 2.96L148.185 3.296L147.969 3.584L147.585 3.92L147.249 4.28L147.225 4.616L147.345 5.144L147.057 5.36L147.369 5.72L147.321 6.008L147.345 6.176L147.297 6.488L147.273 6.776L147.297 6.944L147.249 7.376L147.225 7.784L147.321 8.024L146.961 8.288L147.225 8.672L147.273 9.032L147.297 9.296V9.632L147.321 9.968L147.297 10.232L147.345 10.736L147.297 11.312L147.321 11.984L147.009 12.248L147.297 12.536L147.225 12.92L147.297 13.208L147.465 13.592V13.976L147.681 14.264L147.705 14.504L148.065 14.984L148.233 15.2L148.521 15.488L148.665 15.608L148.833 15.704L149.265 15.872L149.553 15.92L149.841 16.016L150.153 16.04H150.369L150.825 16.064L151.209 16.04L151.521 15.944L151.905 15.848L152.241 15.704L152.409 15.536L152.721 15.296L153.033 14.864L153.273 14.456L153.561 14.12L153.465 13.76L153.513 13.52L153.609 13.184L153.705 12.896V12.392L153.801 11.816L153.657 11.432L153.873 11.096L153.609 10.712L153.729 10.376V9.488L153.753 9.056L153.681 8.744L153.633 8.432L153.681 8.168L153.729 7.928V7.64L153.753 7.352L153.705 6.488L153.825 6.104L153.993 5.744L153.753 5.432L153.705 5.12L153.729 4.616V4.256L153.537 4.112L153.297 3.728L153.009 3.416L152.721 3.08L152.385 2.888L152.817 2.936L153.273 2.984L153.297 2.912L153.753 2.96H154.425L154.617 3.2L155.025 3.008L155.433 2.984L155.841 2.936L155.913 2.888L155.625 3.152L155.433 3.44L155.265 3.704L155.001 3.896L154.809 4.112ZM162.698 12.08L162.53 12.296L162.386 12.68L162.362 12.968L162.314 13.232L162.29 13.592L161.954 13.832L162.122 14.048L162.098 14.336L162.17 14.624L162.098 14.768L162.194 15.2L162.314 15.512L162.338 15.944L162.41 16.136L162.698 16.544L162.266 16.616L162.17 16.592L161.738 16.52L161.33 16.592L160.682 16.616L160.61 16.376L160.25 16.592L159.866 16.64L159.506 16.688L159.266 16.592L158.978 16.616L158.714 16.64L158.978 16.448L159.194 16.04L159.458 15.848L159.602 15.56L159.866 15.416L160.106 15.272L160.49 15.128L160.322 14.96L160.562 14.696L160.61 14.408L160.874 14.12L160.97 13.736L161.234 13.448L161.378 13.112L161.498 12.848L161.666 12.632L161.786 12.32L161.906 11.792L161.978 11.504L162.146 11.168L162.29 10.904L161.882 10.664L161.522 10.544L161.114 10.376L160.85 10.184L160.994 9.656L161.186 9.368L161.282 9.056L161.402 8.744L161.762 9.008L161.954 9.176L162.242 9.272L162.65 9.56L162.746 9.32L162.866 9.008L163.01 8.696L163.082 8.408L163.25 8.072L163.418 7.712V7.424L163.514 7.064L163.778 6.488L164.09 6.152L163.898 5.84L164.042 5.576L164.186 5.288L164.282 4.904L164.378 4.76L164.81 4.088L164.546 3.824L164.306 3.56L163.922 3.368L163.658 2.984L164.042 2.912H164.714L165.146 2.96H165.434L165.722 3.2L166.106 2.96L166.49 2.912L166.874 2.84L167.138 2.912L167.57 2.936L168.146 2.888L167.978 3.272L167.738 3.44L167.522 3.584L167.33 4.112L167.258 4.352L167.378 4.664L167.498 4.952L167.21 5.288L167.618 5.504L167.762 5.816L167.954 6.032L168.074 6.296L168.194 6.8L168.362 7.28L168.17 7.544L168.578 7.736L168.746 7.976L168.866 8.168L168.962 8.504L169.082 8.816L169.058 8.936L169.154 9.512L169.418 9.392L169.802 9.248L170.114 9.104L170.234 9.008L170.618 8.936L170.69 9.152L170.714 9.56L170.978 9.92L171.098 10.208L170.786 10.352L170.378 10.424L170.138 10.544L169.682 10.664L169.898 11.072L170.066 11.384L169.802 11.6L170.21 11.984L170.378 12.416L170.618 12.776L170.762 13.28L170.498 13.52L170.882 13.76L171.026 14.024L171.05 14.312L171.194 14.744L171.482 15.416L171.746 15.584L172.058 15.848L172.49 16.28L172.73 16.592L172.418 16.568L172.058 16.592L171.722 16.544L171.362 16.52L171.026 16.472L171.002 16.592H170.666L170.402 16.376L170.138 16.592H169.802L169.49 16.568L169.106 16.544L168.386 16.592L168.074 16.568L168.626 16.016L168.698 15.92L169.226 15.44L169.082 14.984L168.866 14.696L168.674 14.408L168.746 14.024L168.602 13.712L168.41 13.4L168.626 13.04L168.242 12.968L168.146 12.584L168.002 12.248L167.762 11.84L167.45 12.152L167.258 12.464L167.09 12.704L166.778 12.992L166.49 13.256L166.346 13.52L166.202 13.736L166.034 14L165.914 14.168L165.77 14.36L165.53 14.12L165.29 13.808L165.002 13.4L164.738 13.016L164.426 12.68L164.162 12.392L163.85 12.152L163.562 11.84L163.226 11.576L162.986 11.312L162.938 11.6L162.89 11.864L162.698 12.08ZM165.578 5.552L165.362 5.048L165.122 5.408L164.978 5.696L164.858 5.96L164.69 6.44L164.522 6.752L164.354 7.04L164.426 7.496L164.138 7.928V8.072L164.042 8.6L163.994 8.912L163.586 9.032L163.802 9.32L163.682 9.584L163.49 9.92L163.466 10.136L163.562 10.328L163.97 10.592L164.21 10.952L164.306 11.12L164.546 11.312L164.786 11.552L165.098 11.816L165.218 12.152L165.506 12.464L165.674 12.68L165.866 12.584L166.226 11.864L166.442 11.696L166.778 11.624L166.874 11.168L167.21 10.928L167.354 10.808L167.234 10.328L167.162 10.088L166.946 9.776L166.85 9.464L167.186 9.032L166.682 8.936L166.586 8.576L166.466 8.288L166.37 8L166.346 7.808L166.202 7.544L166.082 7.28L165.794 6.704L166.13 6.344L165.722 6.248L165.65 6.008L165.626 5.84L165.578 5.552ZM189.179 9.872L189.443 9.752L189.491 10.16L189.539 10.496L189.323 10.712L189.347 11.024L189.203 11.264V11.72L189.227 12.2L188.843 12.176L189.059 12.584L189.131 12.872L188.963 13.016L188.723 13.448L188.555 13.736L188.507 14L188.219 14.288L187.955 14.744L187.427 14.72L187.451 15.104L187.235 15.344L187.019 15.56L186.779 15.632L186.491 15.848L186.179 16.064L186.131 15.968L185.747 16.088L185.291 16.208L185.051 16.352L184.787 16.376L184.379 16.4L184.139 16.568H183.755L183.491 16.544L183.011 16.568L182.651 16.64L182.339 16.616L181.883 16.544L181.715 16.592H181.403L181.115 16.568L180.707 16.592L180.323 16.616L180.131 16.544L179.915 16.592H179.243L179.003 16.28L178.643 16.52L178.379 16.592L178.019 16.64L177.683 16.616L177.371 16.568L177.035 16.544L177.275 16.256L177.755 15.824L177.899 15.512L178.211 15.272V14.552L178.355 14.168L178.283 13.64L178.355 13.112L178.307 12.68L178.619 12.32L178.307 11.96L178.283 11.528L178.259 11.144V10.64L178.283 10.328L178.307 9.992L178.235 9.728L178.187 9.44L178.283 9.272L178.163 8.84L178.139 8.432L178.475 8.168L178.331 7.832L178.307 7.52L178.259 7.232V6.896L178.283 6.536L178.595 6.224L178.235 5.816L178.331 5.408L178.451 5.072L178.259 4.88V4.328L178.019 3.992L177.779 3.68L177.563 3.368L177.347 3.032L176.987 2.912L177.827 2.84L178.403 2.912L178.691 2.888L178.979 2.912L179.267 3.248L179.651 3.008L180.059 2.936L180.587 2.984L181.115 2.936H181.403L181.835 2.864L182.267 2.768L182.483 2.888L182.915 2.912H183.107L183.707 2.96L183.971 3.08L184.547 3.008L184.787 3.32L185.219 3.248L185.603 3.344L185.939 3.464L186.371 3.632L186.731 3.872L186.923 3.92L187.115 4.136L187.379 4.184L187.715 4.52L187.643 4.784L188.027 4.952L188.315 5.216L188.459 5.504L188.651 5.768L188.699 6.032L188.843 6.224L188.891 6.536L188.963 6.8L189.155 7.04L188.771 7.232L189.179 7.472V7.64L189.203 7.976L189.347 8.36L189.323 8.648L189.347 9.008L189.443 9.272L189.347 9.608L189.179 9.872ZM181.931 15.704L182.315 15.68L182.843 15.656L183.275 15.68L183.587 15.608H183.827L184.139 15.464L184.475 15.368L184.715 15.2L185.051 15.056L185.267 14.888L185.555 14.672L185.771 14.36L185.987 14.096L186.131 13.76L186.347 13.616L186.419 13.184L186.827 13.04L186.563 12.632L186.755 12.416L186.923 12.128L186.875 11.912L186.923 11.528L186.899 11.096L186.923 10.784L187.091 10.472L187.019 10.184L187.043 9.8L187.115 9.464L186.995 9.08V8.624L187.307 8.24L186.827 8.048L186.947 7.712L186.731 7.232L186.779 7.016L186.755 6.704L186.587 6.416L186.371 6.128L186.275 5.792L186.203 5.576L185.891 5.24L185.771 4.952L185.435 4.664L185.339 4.256L184.979 4.376L184.667 4.232L184.379 4.136L184.043 4.016L183.611 3.896L183.539 3.872L183.011 3.8L182.747 3.776L182.363 3.728L182.051 3.776L181.643 3.824L181.427 3.776L181.043 3.752L180.731 3.728L180.443 3.704L180.395 4.424L180.131 4.736L180.539 5L180.491 5.384L180.419 5.792L180.371 6.176L180.419 6.68L180.371 7.04L180.467 7.4L180.443 7.784L180.419 8.144L180.443 8.408L180.515 8.936L180.419 9.248L180.467 10.04L180.131 10.232L180.467 10.616V11.096L180.491 11.504L180.347 12.176L180.443 12.44L180.467 12.704L180.347 13.304L180.443 13.928L180.419 14.12L180.155 14.384L180.323 14.696V15.008L180.347 15.296L180.443 15.728L180.707 15.704L180.995 15.68L181.259 15.728H181.595L181.931 15.704Z" fill="url(#paint0_linear_550_26)"/>
<defs>
<linearGradient id="paint0_linear_550_26" x1="184" y1="8.99998" x2="9.98196e-07" y2="8.99999" gradientUnits="userSpaceOnUse">
<stop stop-color="#2E0068"/>
<stop offset="1" stop-color="#C50B9C"/>
</linearGradient>
</defs>
</svg>
