<svg width="900" height="900" viewBox="0 0 900 900" fill="none" xmlns="http://www.w3.org/2000/svg">
<g clip-path="url(#clip0_31_278)">
<path d="M0 450C0 201.473 201.473 0 450 0C698.527 0 900 201.473 900 450C900 698.527 698.527 900 450 900C201.473 900 0 698.527 0 450Z" fill="#005FF9"/>
<path fill-rule="evenodd" clip-rule="evenodd" d="M187.5 449.256C187.5 304.922 305.254 187.5 449.996 187.5C594.739 187.5 712.494 304.922 712.494 449.256C712.494 469.703 710.788 486.255 706.965 502.869L706.909 503.145C706.899 503.194 705.002 510.853 703.954 514.194C697.466 534.885 685.721 552.118 669.984 564.028C654.724 575.582 635.801 581.946 616.706 581.946C614.347 581.946 611.972 581.85 609.645 581.664C582.529 579.493 558.686 565.264 544.065 542.574C518.919 567.787 485.557 581.659 449.996 581.659C376.783 581.659 317.22 522.263 317.22 449.256C317.22 376.249 376.783 316.854 449.996 316.854C523.209 316.854 582.772 376.249 582.772 449.256V491.936C582.881 516.84 599.64 527.019 613.958 528.171C628.202 529.267 647.16 520.993 653.764 493.989C657.021 479.179 658.676 464.124 658.676 449.256C658.676 334.513 565.063 241.164 449.996 241.164C334.929 241.164 241.318 334.513 241.318 449.256C241.318 563.996 334.929 657.347 449.996 657.347C490.05 657.347 529.005 645.939 562.648 624.358L563.252 623.97L598.614 664.969L597.855 665.486C554.154 695.271 503.025 711.013 449.996 711.013C305.254 711.013 187.5 593.589 187.5 449.256ZM449.996 527.992C493.534 527.992 528.954 492.671 528.954 449.256C528.954 405.84 493.534 370.522 449.996 370.522C406.457 370.522 371.038 405.84 371.038 449.256C371.038 492.671 406.457 527.992 449.996 527.992Z" fill="#FF9E00"/>
</g>
<rect x="8.5" y="8.5" width="883" height="883" rx="441.5" stroke="white" stroke-width="17"/>
<defs>
<clipPath id="clip0_31_278">
<rect width="900" height="900" rx="450" fill="white"/>
</clipPath>
</defs>
</svg>
