<svg width="900" height="900" viewBox="0 0 900 900" fill="none" xmlns="http://www.w3.org/2000/svg">
<g clip-path="url(#clip0_31_267)">
<path d="M450 900C698.528 900 900 698.528 900 450C900 201.472 698.528 0 450 0C201.472 0 0 201.472 0 450C0 698.528 201.472 900 450 900Z" fill="#F7931E"/>
<path d="M451.589 136.855C362.069 136.855 289.501 209.426 289.501 298.944C289.501 388.463 362.069 461.039 451.589 461.039C541.109 461.039 613.677 388.463 613.677 298.944C613.677 209.426 541.109 136.855 451.589 136.855ZM451.589 365.952C414.585 365.952 384.585 335.95 384.585 298.946C384.585 261.942 414.585 231.942 451.589 231.942C488.593 231.942 518.592 261.942 518.592 298.946C518.592 335.95 488.593 365.952 451.589 365.952Z" fill="white"/>
<path d="M508.813 590.012C573.704 576.793 612.589 546.063 614.647 544.414C633.635 529.186 636.685 501.448 621.457 482.458C606.231 463.47 578.496 460.419 559.503 475.645C559.102 475.97 517.628 507.785 449.388 507.832C381.15 507.785 338.799 475.97 338.398 475.645C319.405 460.419 291.67 463.47 276.444 482.458C261.216 501.448 264.266 529.186 283.254 544.414C285.339 546.086 325.83 577.617 392.539 590.525L299.568 687.688C282.672 705.21 283.18 733.11 300.702 750.006C309.254 758.252 320.277 762.351 331.29 762.351C342.837 762.351 354.373 757.839 363.02 748.869L449.39 656.863L544.484 749.465C561.714 766.668 589.614 766.64 606.811 749.417C624.009 732.192 623.988 704.287 606.762 687.089L508.813 590.012Z" fill="white"/>
<path d="M449.388 507.83C449.279 507.83 449.494 507.832 449.388 507.834C449.281 507.832 449.497 507.83 449.388 507.83Z" fill="white"/>
</g>
<rect x="8.5" y="8.5" width="883" height="883" rx="441.5" stroke="white" stroke-width="17"/>
<defs>
<clipPath id="clip0_31_267">
<rect width="900" height="900" rx="450" fill="white"/>
</clipPath>
</defs>
</svg>
