<svg width="34" height="22" viewBox="0 0 34 22" fill="none" xmlns="http://www.w3.org/2000/svg">
<path d="M32.4826 10.5465C29.1294 4.59904 23.2488 1 16.7413 1C10.2338 1 4.34328 4.59904 1.0199 10.5465L0.741293 10.9952L0.999999 11.4535C4.35323 17.401 10.2338 21 16.7413 21C23.2488 21 29.1393 17.4487 32.4826 11.4535L32.7413 10.9952L32.4826 10.5465ZM16.7413 18C11.1393 18 8 16 4.24129 10.9952C8 6 11.1393 4 16.7413 4C22.3433 4 25.5 6 29.5 10.9952C25.5 16 22.3333 18 16.7413 18Z" fill="#3B2166"/>
<circle cx="17" cy="11" r="4.5" stroke="#3B2166" stroke-width="3"/>
</svg>
