<svg width="34" height="23" viewBox="0 0 34 23" fill="none" xmlns="http://www.w3.org/2000/svg">
<g clip-path="url(#clip0_108_57)">
<g clip-path="url(#clip1_108_57)">
<path d="M1.34552 11.9106C4.7238 18.1361 10.6388 21.8982 17.1788 21.8895C23.7188 21.8808 29.6338 18.103 32.9655 11.8685L33.2449 11.3982L32.9842 10.9185C29.606 4.693 23.691 0.93086 17.151 0.939551C10.611 0.948243 4.69591 4.67611 1.34426 10.9606L1.0849 11.4409L1.34552 11.9106ZM17.151 4C22.781 3.99252 26 6.5 29.5 11.4409C26 16.5 22.781 18.9925 17.151 19C11.521 19.0075 8 16.5 4.5 11.3982C8 6.5 11.531 4.00747 17.151 4Z" fill="#3B2166"/>
<circle cx="16.5" cy="11.5" r="5" stroke="#3B2166" stroke-width="3"/>
</g>
<g clip-path="url(#clip2_108_57)">
<path d="M32.6837 11.0499C29.3447 4.8206 23.4813 1.05528 16.9881 1.06245C10.495 1.06962 4.61331 4.84791 1.29037 11.0845L1.01185 11.5551L1.26946 12.035C4.6084 18.2643 10.4719 22.0296 16.965 22.0224C23.4581 22.0153 29.3398 18.287 32.6826 12.0003L32.9413 11.5198L32.6837 11.0499ZM16.965 19C11.3753 19.0062 8 16.5 4.5 11.5198C7.48434 6.224 11.3985 4.00617 16.9881 4C22.5778 3.99383 26 6.5 29.5 11.5198C26 16.5 22.5447 18.9938 16.965 19Z" fill="#3B2166"/>
<circle cx="16.5" cy="11.5" r="5" stroke="#3B2166" stroke-width="3"/>
</g>
</g>
<rect x="2" y="18.1465" width="33.062" height="3" transform="rotate(-29.2337 2 18.1465)" fill="#3B2166"/>
<defs>
<clipPath id="clip0_108_57">
<rect width="34" height="23" fill="white"/>
</clipPath>
<clipPath id="clip1_108_57">
<rect width="35" height="18" fill="white" transform="translate(30.4004 1.6001) rotate(150.6)"/>
</clipPath>
<clipPath id="clip2_108_57">
<rect width="35.0907" height="18" fill="white" transform="translate(4 21.1855) rotate(-29.3239)"/>
</clipPath>
</defs>
</svg>
