<svg width="26" height="26" viewBox="0 0 26 26" fill="none" xmlns="http://www.w3.org/2000/svg">
<path d="M25 13C25 14.7324 23.8553 16.4593 21.6683 17.8052C19.4974 19.1411 16.4353 20 13 20C9.56475 20 6.50257 19.1411 4.33171 17.8052C2.14468 16.4593 1 14.7324 1 13C1 11.2676 2.14468 9.54067 4.33171 8.1948C6.50257 6.85889 9.56475 6 13 6C16.4353 6 19.4974 6.85889 21.6683 8.1948C23.8553 9.54067 25 11.2676 25 13Z" stroke="white" stroke-width="2"/>
<path d="M15.8 12.9C15.8 14.5016 14.5016 15.8 12.9 15.8C11.2984 15.8 10 14.5016 10 12.9C10 11.2984 11.2984 10 12.9 10C14.5016 10 15.8 11.2984 15.8 12.9Z" stroke="white" stroke-width="2"/>
</svg>
