<svg width="900" height="900" viewBox="0 0 900 900" fill="none" xmlns="http://www.w3.org/2000/svg">
<path d="M449.706 891.5C249.913 891.5 81.0793 758.977 26.4746 577.065C8.9045 514.53 8.87736 487.322 8.87732 420.384C24.1429 190.374 215.663 8.5 449.706 8.5C693.704 8.5 891.5 206.172 891.5 450C891.5 693.823 693.704 891.5 449.706 891.5Z" fill="url(#paint0_linear_31_269)" stroke="white" stroke-width="17"/>
<path d="M433.563 344.344L435.208 341.956L435.051 339.06C430.237 250.556 510.751 174.598 597.56 174.598C687.207 174.598 760.095 247.58 760.095 337.298C760.095 427.014 687.203 500.061 597.56 500.061H594.891L592.701 501.587L431.174 614.106L427.413 616.726L427.536 621.308C427.969 637.481 424.988 653.712 418.559 669.234C393.921 728.438 325.621 756.622 266.412 731.898L266.405 731.896C230.229 716.824 205.682 685.494 197.667 649.701L196.701 645.386L192.613 643.7L25.1684 574.653C14.7669 542.262 10.6442 504.723 9.19615 474.568C8.44819 458.993 8.41943 445.53 8.57737 435.972C8.59525 434.89 8.61552 433.858 8.6374 432.88L239.312 527.778L243.463 529.486L247.214 527.021C267.454 513.719 291.839 506.878 315.99 507.975L320.701 508.189L323.376 504.306L433.563 344.344ZM227.76 658.266L207.254 649.773L274.097 713.398L270.83 721.245C270.83 721.245 270.83 721.245 270.831 721.245C324.244 743.485 385.667 718.135 407.932 664.716C418.699 638.91 418.737 610.308 408.103 584.437C397.472 558.569 377.371 538.279 351.493 527.52C325.813 516.841 298.316 517.184 274.17 526.337L254.123 533.936L273.931 542.138L331.471 565.966C331.474 565.967 331.477 565.968 331.48 565.97C363.31 579.233 378.376 615.811 365.093 647.667L365.091 647.673C351.849 679.496 315.304 694.591 283.452 681.331L283.445 681.328L283.438 681.325L227.76 658.266ZM475.114 337.298C475.114 404.899 530.047 459.895 597.56 459.895C665.112 459.895 720.043 404.901 720.043 337.298C720.043 269.745 665.111 214.738 597.56 214.738C530.049 214.738 475.114 269.747 475.114 337.298ZM520.677 337.124C520.677 294.479 555.227 259.908 597.752 259.908C640.322 259.908 674.866 294.482 674.866 337.124C674.866 379.769 640.326 414.31 597.752 414.31C555.223 414.31 520.677 379.771 520.677 337.124Z" fill="white" stroke="white" stroke-width="17"/>
<defs>
<linearGradient id="paint0_linear_31_269" x1="450.188" y1="0" x2="450.188" y2="900" gradientUnits="userSpaceOnUse">
<stop stop-color="#111D2E"/>
<stop offset="0.21248" stop-color="#051839"/>
<stop offset="0.40695" stop-color="#0A1B48"/>
<stop offset="0.5811" stop-color="#132E62"/>
<stop offset="0.7376" stop-color="#144B7E"/>
<stop offset="0.87279" stop-color="#136497"/>
<stop offset="1" stop-color="#1387B8"/>
</linearGradient>
</defs>
</svg>
