<svg width="900" height="900" viewBox="0 0 900 900" fill="none" xmlns="http://www.w3.org/2000/svg">
<g clip-path="url(#clip0_31_268)">
<path d="M450 0C201.47 0 0 201.47 0 450C0 698.53 201.47 900 450 900C698.53 900 900 698.53 900 450C900 201.47 698.53 0 450 0Z" fill="#40B3E0"/>
<path d="M668.962 258.858L588.588 664.094C588.588 664.094 577.349 692.198 546.436 678.708L360.958 536.508L293.515 503.911L179.981 465.689C179.981 465.689 162.558 459.509 160.87 446.019C159.186 432.53 180.543 425.225 180.543 425.225L631.865 248.178C631.865 248.178 668.962 231.879 668.962 258.858Z" fill="white"/>
<path d="M346.703 659.544C346.703 659.544 341.289 659.037 334.543 637.676C327.8 616.319 293.515 503.91 293.515 503.91L566.106 330.801C566.106 330.801 581.846 321.246 581.283 330.801C581.283 330.801 584.092 332.485 575.662 340.353C567.231 348.225 361.522 533.136 361.522 533.136" fill="#D2E5F1"/>
<path d="M432.076 591.031L358.712 657.919C358.712 657.919 352.978 662.271 346.702 659.543L360.751 535.297" fill="#B5CFE4"/>
</g>
<rect x="8.5" y="8.5" width="883" height="883" rx="441.5" stroke="white" stroke-width="17"/>
<defs>
<clipPath id="clip0_31_268">
<rect width="900" height="900" rx="450" fill="white"/>
</clipPath>
</defs>
</svg>
