<svg width="900" height="900" viewBox="0 0 900 900" fill="none" xmlns="http://www.w3.org/2000/svg">
<g clip-path="url(#clip0_31_276)">
<path d="M450 0C201.472 0 0 201.472 0 450C0 698.528 201.472 900 450 900C698.528 900 900 698.528 900 450C900 201.472 698.528 0 450 0Z" fill="url(#paint0_linear_31_276)"/>
<path d="M692.102 329.644C675.397 329.644 658.856 326.354 643.423 319.962C627.99 313.57 613.967 304.2 602.155 292.388C590.343 280.576 580.973 266.554 574.58 251.121C568.188 235.688 564.898 219.146 564.898 202.442H474.019V558.308C474.001 574.532 468.878 590.34 459.375 603.49C449.872 616.64 436.471 626.466 421.071 631.575C405.672 636.683 389.055 636.816 373.576 631.953C358.097 627.09 344.542 617.479 334.83 604.482C325.119 591.485 319.745 575.76 319.469 559.538C319.193 543.316 324.03 527.418 333.294 514.098C342.559 500.779 355.78 490.713 371.085 485.327C386.389 479.941 403.001 479.509 418.565 484.091V395.75C385.488 391.29 351.838 397.027 322.108 412.195C292.378 427.363 267.982 451.24 252.179 480.638C236.376 510.035 229.918 543.554 233.667 576.719C237.415 609.884 251.193 641.116 273.159 666.245C295.125 691.373 324.235 709.202 356.6 717.351C388.966 725.5 423.048 723.581 454.295 711.851C485.541 700.12 512.465 679.136 531.472 651.7C550.478 624.265 560.663 591.684 560.665 558.308L563.301 378.427C600.641 405.839 645.77 420.588 692.091 420.52L692.102 329.644Z" fill="url(#paint1_linear_31_276)"/>
<path d="M668.078 304.889C634.342 304.888 601.988 291.486 578.134 267.631C554.279 243.775 540.879 211.421 540.879 177.685H450V533.551C449.983 549.775 444.86 565.583 435.357 578.734C425.854 591.884 412.453 601.71 397.054 606.819C381.655 611.928 365.038 612.061 349.559 607.198C334.08 602.336 320.524 592.725 310.812 579.727C301.101 566.73 295.726 551.006 295.45 534.784C295.175 518.561 300.011 502.664 309.276 489.344C318.54 476.024 331.761 465.958 347.066 460.572C362.371 455.186 378.982 454.753 394.546 459.336V370.993C361.47 366.533 327.82 372.27 298.089 387.438C268.359 402.606 243.964 426.483 228.161 455.881C212.358 485.278 205.899 518.798 209.648 551.962C213.397 585.127 227.174 616.359 249.14 641.488C271.106 666.616 300.216 684.445 332.582 692.594C364.948 700.743 399.029 698.824 430.276 687.094C461.523 675.363 488.447 654.379 507.453 626.943C526.46 599.508 536.644 566.927 536.646 533.551L539.297 353.672C576.637 381.083 621.766 395.832 668.087 395.763L668.078 304.889Z" fill="url(#paint2_linear_31_276)"/>
<path d="M668.078 327.37C636.634 321.319 608.629 303.633 589.653 277.842C565.669 259.071 549.217 232.316 543.29 202.442H474.024V558.308C474.022 575.197 468.494 591.622 458.284 605.075C448.073 618.529 433.741 628.272 417.475 632.817C401.208 637.362 383.902 636.459 368.196 630.247C352.491 624.035 339.249 612.854 330.493 598.412C314.923 588.277 303.518 572.878 298.364 555.028C293.211 537.179 294.651 518.071 302.423 501.196C310.195 484.321 323.779 470.806 340.694 463.12C357.608 455.434 376.723 454.091 394.546 459.336V394.326C363.975 394.72 334.123 403.651 308.359 420.112C282.595 436.572 261.946 459.906 248.74 487.481C235.535 515.055 230.301 545.772 233.628 576.164C236.955 606.555 248.711 635.412 267.569 659.477C291.51 679.453 320.649 692.191 351.572 696.197C382.494 700.203 413.918 695.311 442.159 682.095C470.4 668.878 494.288 647.884 511.023 621.575C527.758 595.266 536.646 564.731 536.646 533.551L539.297 353.672C576.637 381.083 621.765 395.832 668.086 395.763L668.078 327.37Z" fill="url(#paint3_linear_31_276)"/>
</g>
<rect x="8.5" y="8.5" width="883" height="883" rx="441.5" stroke="white" stroke-width="17"/>
<defs>
<linearGradient id="paint0_linear_31_276" x1="-2.36778" y1="902.368" x2="897.713" y2="2.28692" gradientUnits="userSpaceOnUse">
<stop stop-color="#111111"/>
<stop offset="1" stop-color="#323232"/>
</linearGradient>
<linearGradient id="paint1_linear_31_276" x1="269.051" y1="662.637" x2="647.072" y2="284.614" gradientUnits="userSpaceOnUse">
<stop stop-color="#B5053C"/>
<stop offset="0.233" stop-color="#C90441"/>
<stop offset="0.737" stop-color="#F0014B"/>
<stop offset="1" stop-color="#FF004F"/>
</linearGradient>
<linearGradient id="paint2_linear_31_276" x1="239.4" y1="643.507" x2="637.597" y2="245.312" gradientUnits="userSpaceOnUse">
<stop stop-color="#00B2C9"/>
<stop offset="0.283" stop-color="#00C8D4"/>
<stop offset="0.741" stop-color="#00E6E4"/>
<stop offset="1" stop-color="#00F1EA"/>
</linearGradient>
<linearGradient id="paint3_linear_31_276" x1="16.3107" y1="890.988" x2="897.722" y2="9.57645" gradientUnits="userSpaceOnUse">
<stop stop-color="#DDE3E4"/>
<stop offset="1" stop-color="#FCF7F7"/>
</linearGradient>
<clipPath id="clip0_31_276">
<rect width="900" height="900" rx="450" fill="white"/>
</clipPath>
</defs>
</svg>
