<svg width="900" height="900" viewBox="0 0 900 900" fill="none" xmlns="http://www.w3.org/2000/svg">
<g clip-path="url(#clip0_31_271)">
<rect width="900" height="900" rx="450" fill="white"/>
<path d="M450 900C698.528 900 900 698.528 900 450C900 201.472 698.528 0 450 0C201.472 0 0 201.472 0 450C0 698.528 201.472 900 450 900Z" fill="#1DA1F2"/>
<path fill-rule="evenodd" clip-rule="evenodd" d="M720 276.943C700.148 285.763 678.782 291.703 656.375 294.385C679.25 280.669 696.818 258.963 705.078 233.099C683.696 245.805 659.957 255.003 634.741 259.989C614.527 238.463 585.711 224.999 553.871 224.999C492.694 224.999 443.088 274.605 443.088 335.782C443.088 344.456 444.078 352.916 445.968 361.034C353.887 356.426 272.261 312.31 217.618 245.283C208.078 261.645 202.624 280.669 202.624 300.973C202.624 339.4 222.154 373.31 251.906 393.18C233.726 392.604 216.664 387.618 201.706 379.32V380.706C201.706 434.398 239.918 479.159 290.567 489.365C281.279 491.885 271.487 493.253 261.392 493.253C254.246 493.253 247.298 492.551 240.53 491.255C254.624 535.263 295.553 567.301 344.023 568.201C306.117 597.898 258.35 615.626 206.44 615.626C197.476 615.626 188.658 615.104 180 614.06C229.03 645.488 287.255 663.846 349.819 663.846C553.583 663.846 665.014 495.035 665.014 348.65C665.014 343.844 664.925 339.058 664.691 334.324C686.36 318.664 705.15 299.155 720 276.943Z" fill="white"/>
</g>
<rect x="8.5" y="8.5" width="883" height="883" rx="441.5" stroke="white" stroke-width="17"/>
<defs>
<clipPath id="clip0_31_271">
<rect width="900" height="900" rx="450" fill="white"/>
</clipPath>
</defs>
</svg>
