<svg width="900" height="900" viewBox="0 0 900 900" fill="none" xmlns="http://www.w3.org/2000/svg">
<g clip-path="url(#clip0_31_270)">
<path d="M450 900C698.528 900 900 698.528 900 450C900 201.472 698.528 0 450 0C201.472 0 0 201.472 0 450C0 698.528 201.472 900 450 900Z" fill="#2787F5"/>
<path d="M514.89 238.623H385.11C266.669 238.623 238.623 266.669 238.623 385.11V514.89C238.623 633.331 266.669 661.377 385.11 661.377H514.89C633.331 661.377 661.377 633.331 661.377 514.89V385.11C661.377 266.669 633.032 238.623 514.89 238.623ZM579.929 540.246H549.167C537.53 540.246 533.953 531 513.07 509.818C494.868 492.24 486.817 489.832 482.309 489.832C476.042 489.832 474.249 491.59 474.249 500.273V528.021C474.249 535.482 471.858 539.956 452.171 539.956C419.651 539.956 383.555 520.269 358.189 483.565C320.001 429.864 309.56 389.584 309.56 381.234C309.56 376.761 311.317 372.586 320.001 372.586H350.763C358.523 372.586 361.503 376.163 364.482 384.521C379.696 428.379 405.062 466.866 415.459 466.866C419.335 466.866 421.128 465.108 421.128 455.23V409.878C419.933 388.995 408.894 387.202 408.894 379.749C408.894 376.172 411.873 372.586 416.654 372.586H464.994C471.56 372.586 473.941 376.163 473.941 383.924V445.078C473.941 451.644 476.921 454.025 478.714 454.025C482.59 454.025 485.877 451.635 493.031 444.48C515.109 419.722 530.921 381.533 530.921 381.533C533.013 377.06 536.59 372.885 544.351 372.885H575.112C584.358 372.885 586.45 377.657 584.358 384.223C580.482 402.126 542.892 455.23 542.892 455.23C539.613 460.6 538.418 462.99 542.892 468.949C546.17 473.423 556.954 482.669 564.073 491.027C577.204 505.969 587.347 518.476 590.027 527.124C593.06 535.772 588.577 540.246 579.929 540.246Z" fill="white"/>
</g>
<rect x="8.5" y="8.5" width="883" height="883" rx="441.5" stroke="white" stroke-width="17"/>
<defs>
<clipPath id="clip0_31_270">
<rect width="900" height="900" rx="450" fill="white"/>
</clipPath>
</defs>
</svg>
