<svg width="900" height="900" viewBox="0 0 900 900" fill="none" xmlns="http://www.w3.org/2000/svg">
<rect x="8.5" y="8.5" width="883" height="883" rx="441.5" fill="#25D366"/>
<path d="M216.211 690.82L240.82 576.562C209.19 526.673 196.851 466.956 206.118 408.616C215.385 350.276 245.622 297.322 291.155 259.69C336.688 222.058 394.388 202.333 453.429 204.217C512.471 206.101 568.796 229.464 611.837 269.923C654.878 310.381 681.677 365.155 687.206 423.967C692.735 482.779 676.614 541.588 641.867 589.359C607.12 637.131 556.136 670.582 498.481 683.437C440.825 696.291 380.46 687.666 328.711 659.179L216.211 690.82Z" fill="#25D366" stroke="white" stroke-width="26"/>
<path d="M541.406 479.883C536.133 476.367 530.86 474.609 525.586 481.641L504.492 509.766C499.219 513.281 495.703 515.039 488.672 511.523C462.305 497.461 425.391 481.641 393.75 428.906C391.992 421.875 395.508 418.359 399.024 414.844L414.844 390.234C418.36 386.719 416.602 383.203 414.844 379.687L393.75 328.711C388.477 314.648 383.203 316.406 377.93 316.406H363.867C360.352 316.406 353.32 318.164 346.289 325.195C307.617 363.867 323.438 418.359 351.563 453.516C356.836 460.547 391.992 523.828 467.578 557.227C523.828 581.836 536.133 578.32 551.953 574.805C571.289 573.047 590.625 557.227 599.414 541.406C601.172 536.133 609.961 513.281 602.93 509.766" fill="white"/>
<rect x="8.5" y="8.5" width="883" height="883" rx="441.5" stroke="white" stroke-width="17"/>
</svg>
