<svg width="900" height="900" viewBox="0 0 900 900" fill="none" xmlns="http://www.w3.org/2000/svg">
<g clip-path="url(#clip0_31_273)">
<rect width="900" height="900" rx="450" fill="white"/>
<g clip-path="url(#clip1_31_273)">
<path d="M450.001 900.002C698.53 900.002 900.002 698.53 900.002 450.001C900.002 201.472 698.53 0 450.001 0C201.472 0 0 201.472 0 450.001C0 698.53 201.472 900.002 450.001 900.002Z" fill="#D42428"/>
<path d="M768.184 131.753C943.92 307.505 943.936 592.44 768.184 768.192C592.448 943.928 307.497 943.936 131.746 768.192L768.184 131.753Z" fill="#CC202D"/>
<path d="M893.144 527.857L590.294 225.008L565.865 249.437L541.436 225.008L514.662 251.782L532.646 269.766L526.776 275.636L480.142 229.002L478.152 231.005L415.31 168.163L388.535 194.937L395.862 202.264L385.104 213.022L339.805 167.723L321.026 186.502L365.187 292.852L345.299 374.504L399.671 428.89L262.149 438.51L260.067 677.153L481.372 898.728C688.729 883.999 858.041 728.903 893.144 527.857Z" fill="#BA202E"/>
<path d="M610.957 554.34H581.923L582.066 537.486C582.066 529.989 588.213 523.872 595.737 523.872H597.598C605.123 523.872 611.297 529.991 611.297 537.486L610.957 554.34ZM502.106 518.221C494.766 518.221 488.741 523.174 488.741 529.228V611.191C488.741 617.245 494.766 622.169 502.106 622.169C509.503 622.169 515.528 617.245 515.528 611.191V529.22C515.528 523.174 509.503 518.221 502.106 518.221ZM678.845 472.383V628.295C678.845 665.7 646.416 696.297 606.759 696.297H310.382C270.717 696.297 238.295 665.692 238.295 628.295V472.383C238.295 434.978 270.719 404.368 310.382 404.368H606.766C646.414 404.368 678.845 434.985 678.845 472.383ZM330.143 645.229L330.13 480.989L366.866 481.002V456.659L268.928 456.509V480.427L299.504 480.52V645.221H330.143V645.229ZM440.28 505.46H409.647V593.158C409.647 605.849 410.407 612.194 409.605 614.425C407.104 621.225 395.906 628.445 391.549 615.164C390.811 612.834 391.464 605.813 391.451 593.754L391.308 505.452H360.846L360.96 592.36C360.973 605.684 360.654 615.617 361.059 620.137C361.805 628.109 361.528 637.41 368.94 642.705C382.711 652.646 409.129 641.228 415.737 627.036L415.68 645.141L440.272 645.177V505.46H440.28ZM538.275 605.883L538.218 532.887C538.189 505.061 517.383 488.399 489.117 510.91L489.244 456.636L458.639 456.685L458.489 643.998L483.651 643.628L485.94 631.953C518.107 661.486 538.33 641.264 538.275 605.883ZM634.157 596.213L611.177 596.335C611.177 597.252 611.136 598.297 611.121 599.447V612.266C611.121 619.123 605.458 624.708 598.572 624.708H594.073C587.174 624.708 581.511 619.123 581.511 612.266V610.845V596.734V578.543H634.108V558.746C634.108 544.287 633.732 529.826 632.538 521.556C628.779 495.385 592.056 491.236 573.497 504.63C567.671 508.815 563.229 514.413 560.63 521.947C558.022 529.473 556.729 539.739 556.729 552.8V596.322C556.748 668.67 644.623 658.444 634.157 596.213ZM516.331 359.908C517.902 363.759 520.354 366.864 523.7 369.223C526.975 371.524 531.197 372.698 536.233 372.698C540.646 372.698 544.56 371.503 547.958 369.039C551.361 366.587 554.232 362.935 556.562 358.047L555.979 370.07H590.121V224.858H563.241V337.874C563.241 343.985 558.189 348.994 552.027 348.994C545.908 348.994 540.842 343.985 540.842 337.874V224.858H512.795V322.796C512.795 335.274 513.016 343.594 513.392 347.815C513.794 352.006 514.753 356.021 516.331 359.908ZM412.86 277.896C412.86 263.955 414.026 253.075 416.328 245.231C418.644 237.407 422.836 231.119 428.876 226.387C434.915 221.618 442.648 219.239 452.027 219.239C459.921 219.239 466.693 220.794 472.356 223.829C478.019 226.884 482.417 230.842 485.444 235.738C488.557 240.648 490.645 245.7 491.775 250.865C492.926 256.095 493.481 264.004 493.481 274.641V311.369C493.481 324.841 492.941 334.746 491.897 341.043C490.866 347.354 488.636 353.201 485.182 358.679C481.771 364.109 477.366 368.165 472.022 370.751C466.636 373.374 460.476 374.652 453.497 374.652C445.724 374.652 439.158 373.579 433.764 371.327C428.35 369.096 424.157 365.727 421.18 361.258C418.153 356.782 416.043 351.332 414.77 344.98C413.477 338.62 412.866 329.078 412.866 316.345V277.896H412.86ZM439.591 335.586C439.591 343.799 445.722 350.514 453.176 350.514C460.63 350.514 466.72 343.806 466.72 335.586V258.277C466.72 250.064 460.63 243.349 453.176 243.349C445.722 243.349 439.591 250.056 439.591 258.277V335.586ZM345.092 374.616H377.316L377.345 263.243L415.41 167.835H380.174L359.937 238.713L339.408 167.65H304.548L345.043 263.307L345.092 374.616Z" fill="white"/>
</g>
</g>
<rect x="8.5" y="8.5" width="883" height="883" rx="441.5" stroke="white" stroke-width="17"/>
<defs>
<clipPath id="clip0_31_273">
<rect width="900" height="900" rx="450" fill="white"/>
</clipPath>
<clipPath id="clip1_31_273">
<rect width="900" height="900" fill="white"/>
</clipPath>
</defs>
</svg>
